<?xml version="1.0" standalone="no"?>
<!DOCTYPE svg PUBLIC "-//W3C//DTD SVG 20010904//EN"
 "http://www.w3.org/TR/2001/REC-SVG-20010904/DTD/svg10.dtd">
<svg version="1.0" xmlns="http://www.w3.org/2000/svg"
 width="592.000000pt" height="592.000000pt" viewBox="0 0 592.000000 592.000000"
 preserveAspectRatio="xMidYMid meet">
<metadata>
Created by potrace 1.11, written by Peter Selinger 2001-2013
</metadata>
<g transform="translate(0.000000,592.000000) scale(0.100000,-0.100000)"
fill="#000000" stroke="none">
<path d="M3117 5762 c8 -5 0 -8 -21 -8 -37 0 -116 -31 -116 -46 0 -5 5 -6 10
-3 6 3 10 1 10 -4 0 -14 -6 -14 -32 0 -12 7 -18 7 -14 1 3 -6 -9 -16 -27 -23
-17 -7 -36 -14 -42 -17 -5 -2 -3 1 5 7 11 8 11 11 2 11 -7 0 -15 -7 -18 -15
-7 -16 -74 -17 -71 0 3 16 -37 11 -55 -7 -10 -10 -27 -18 -38 -18 -11 0 -20
-4 -20 -10 0 -5 6 -7 14 -4 8 3 17 1 21 -5 4 -7 -9 -11 -37 -11 -32 0 -58 -9
-104 -38 -33 -20 -60 -40 -60 -44 1 -3 -11 -16 -26 -28 -16 -12 -28 -18 -28
-15 0 4 -7 2 -15 -5 -8 -7 -15 -9 -15 -5 0 5 -9 0 -20 -10 -10 -9 -26 -15 -34
-12 -8 3 -16 -2 -19 -13 -3 -14 -19 -19 -66 -25 -33 -4 -63 -11 -66 -15 -3 -5
4 -7 15 -5 11 2 20 0 20 -6 0 -5 -7 -9 -15 -9 -8 0 -12 -6 -9 -14 3 -9 -4 -19
-18 -26 -19 -10 -21 -10 -10 1 6 7 12 17 12 22 0 5 -8 -1 -18 -14 -11 -12 -26
-23 -34 -25 -27 -4 -70 -37 -58 -44 6 -4 -2 -7 -19 -7 -16 0 -37 -7 -46 -16
-9 -9 -11 -17 -5 -17 21 0 -25 -48 -63 -65 -20 -9 -34 -21 -31 -27 4 -6 -1 -8
-15 -3 -12 4 -21 2 -21 -4 0 -6 -13 -17 -30 -26 -16 -9 -30 -20 -30 -26 0 -5
-12 -21 -27 -35 -23 -20 -24 -23 -6 -15 35 17 37 13 5 -14 -17 -14 -34 -25
-40 -25 -5 0 -13 -11 -16 -25 -4 -14 -11 -23 -16 -20 -6 3 -10 0 -11 -7 -2
-44 -29 -107 -54 -128 -8 -7 -15 -20 -15 -29 0 -9 -12 -38 -25 -66 -14 -27
-25 -56 -25 -62 0 -7 -4 -13 -9 -13 -6 0 -10 -8 -9 -17 0 -25 -38 -122 -57
-143 -25 -27 -66 -159 -71 -226 -3 -34 -12 -101 -21 -150 -17 -94 -20 -186
-10 -244 4 -19 10 -62 14 -95 3 -33 14 -73 23 -90 38 -69 62 -241 29 -208 -8
8 -8 17 0 32 7 13 8 21 2 21 -6 0 -13 -17 -17 -37 -7 -36 -18 -53 -38 -53 -4
0 -5 12 -1 28 6 25 5 26 -8 8 -14 -19 -15 -19 -26 2 -6 11 -11 38 -12 59 -1
42 -16 101 -18 70 -1 -10 -5 -16 -9 -13 -4 2 -9 -4 -9 -15 -1 -11 2 -17 8 -14
9 6 10 4 15 -52 3 -37 -10 -43 -26 -14 -7 14 -6 21 2 23 7 3 5 7 -6 11 -9 4
-15 3 -11 -2 3 -5 -1 -12 -7 -14 -10 -4 -10 -6 0 -6 6 -1 12 -8 12 -16 0 -9 7
-18 15 -21 12 -5 12 -8 0 -20 -19 -19 -25 -18 -25 7 0 11 -4 17 -10 14 -5 -3
-10 -1 -10 4 0 6 -5 11 -11 11 -5 0 -8 -4 -5 -9 7 -11 -22 -23 -35 -15 -5 3
-9 12 -9 20 0 8 -5 12 -10 9 -7 -4 -7 -12 0 -25 5 -10 7 -26 4 -34 -4 -10 -1
-16 7 -16 7 0 9 -3 6 -7 -4 -3 1 -15 10 -25 16 -18 16 -18 -13 -3 -27 14 -29
14 -32 -4 -2 -13 -9 -18 -18 -14 -10 3 -12 0 -9 -10 4 -8 -1 -17 -9 -20 -9 -4
-16 -2 -16 4 0 6 -6 7 -12 3 -10 -6 -10 -4 0 8 10 13 10 18 1 24 -8 5 -9 3 -4
-6 5 -9 4 -11 -3 -6 -7 4 -12 30 -12 59 0 37 3 48 10 37 7 -11 10 3 10 47 0
55 3 65 27 88 33 30 47 32 38 5 -5 -15 -3 -18 9 -14 19 7 19 9 4 33 -9 15 -9
26 0 47 16 33 8 44 -9 12 -7 -12 -20 -30 -31 -39 -10 -9 -18 -21 -18 -28 0
-15 -17 -14 -23 2 -2 6 -3 26 -2 42 1 17 1 20 -2 7 -3 -17 -9 -22 -20 -18 -13
5 -13 4 -4 -7 14 -17 15 -42 5 -137 -4 -41 -7 -91 -6 -112 1 -28 -4 -40 -23
-52 -42 -27 -47 -21 -45 52 3 105 2 112 -13 82 -8 -15 -9 -28 -4 -31 5 -4 5
-9 -1 -13 -16 -10 -32 27 -32 72 0 36 2 40 26 40 31 0 46 19 34 42 -5 9 -4 23
1 33 8 13 6 18 -5 22 -9 3 -22 7 -30 9 -12 4 -13 -1 -4 -25 5 -16 14 -29 19
-29 15 0 10 -28 -7 -34 -38 -15 -73 1 -43 19 15 10 6 38 -13 41 -11 1 -18 -4
-18 -14 0 -13 -2 -14 -8 -4 -5 7 -16 10 -27 6 -17 -7 -17 -8 0 -21 10 -7 15
-16 10 -20 -4 -5 -10 -2 -12 5 -3 6 -19 12 -36 12 -30 1 -31 2 -13 15 10 7 16
20 13 27 -4 10 -6 10 -6 1 -1 -7 -7 -13 -15 -13 -20 0 -7 51 21 79 18 19 22
20 17 6 -5 -13 -4 -16 4 -11 16 10 16 -36 0 -52 -10 -10 -7 -12 12 -9 22 4 25
9 25 46 0 29 -4 40 -12 36 -17 -6 -17 12 0 19 6 3 3 5 -8 5 -41 -2 -45 1 -45
40 0 33 -4 40 -25 45 -19 5 -27 15 -32 38 -6 30 -7 30 -14 9 -7 -19 -12 -20
-30 -11 -26 15 -32 9 -20 -21 5 -13 10 -20 10 -14 1 5 8 -1 17 -13 15 -21 15
-25 -2 -43 -9 -10 -13 -19 -7 -19 13 0 4 -103 -9 -111 -7 -4 -9 -24 -5 -49 4
-30 2 -43 -9 -47 -8 -3 -14 -9 -14 -14 0 -5 9 -4 20 3 10 7 23 8 27 4 4 -5 3
-11 -4 -13 -7 -2 -9 -11 -6 -19 7 -18 -11 -18 -27 1 -9 10 -17 12 -30 5 -9 -5
-21 -6 -25 -2 -4 4 -6 0 -4 -8 2 -8 -3 -26 -10 -39 -7 -12 -11 -32 -8 -42 3
-10 2 -17 -3 -14 -13 8 -6 160 8 158 15 -4 15 10 0 25 -9 9 -9 12 0 12 10 0
10 5 2 20 -6 12 -8 31 -4 43 5 12 7 25 6 30 -3 13 17 8 37 -9 11 -10 17 -23
14 -30 -3 -8 2 -14 11 -14 20 0 20 1 2 36 -8 15 -12 32 -9 38 3 6 0 6 -7 -1
-19 -17 -40 -4 -40 24 0 22 3 24 25 19 14 -4 25 -2 25 4 0 5 -3 9 -7 9 -25 -4
-34 3 -28 21 4 14 2 20 -7 18 -7 -2 -13 3 -12 10 1 6 2 21 3 32 1 15 8 20 31
20 19 0 33 7 40 21 7 11 10 22 8 23 -37 20 -135 25 -122 5 3 -5 0 -16 -6 -24
-7 -8 -8 -15 -3 -15 14 0 15 -53 1 -62 -13 -7 -14 -11 -17 -43 0 -8 -12 -17
-26 -21 -24 -6 -27 -14 -37 -114 -2 -19 -9 -25 -25 -24 -13 0 -23 -4 -23 -9 0
-5 -7 -4 -15 3 -8 6 -30 10 -50 7 -30 -4 -35 -2 -36 17 0 18 -2 18 -10 -6 -12
-32 -33 -42 -49 -22 -7 8 -19 14 -26 14 -8 0 -11 6 -7 16 5 13 2 15 -17 9 -15
-5 -25 -3 -31 6 -6 11 -9 10 -15 -4 -4 -12 0 -23 12 -32 16 -13 17 -16 4 -24
-17 -12 -30 3 -30 37 0 24 -7 27 -30 12 -12 -8 -12 -10 2 -15 24 -9 19 -43 -5
-37 -17 4 -18 2 -8 -16 14 -26 -3 -40 -18 -15 -6 10 -11 13 -11 5 0 -9 -6 -9
-23 3 -22 14 -25 13 -50 -19 -33 -40 -67 -54 -59 -24 5 20 4 20 -21 4 -25 -17
-46 -8 -32 14 3 6 2 10 -3 10 -14 0 -25 -34 -13 -38 14 -5 14 -32 1 -32 -6 0
-10 -268 -10 -747 l0 -746 92 9 c203 20 506 0 541 -35 5 -5 -14 -31 -47 -63
-50 -48 -61 -54 -103 -57 -27 -1 -49 -4 -51 -6 -2 -2 -14 3 -28 10 -16 8 -39
10 -67 5 -47 -8 -88 -7 -103 3 -9 5 -40 3 -96 -6 -9 -2 -25 -10 -35 -19 -20
-18 -70 -34 -92 -29 -11 2 -13 -45 -8 -296 5 -250 9 -314 26 -395 61 -283 196
-526 398 -719 92 -86 248 -199 277 -199 9 0 16 -4 16 -9 0 -20 200 -99 335
-131 124 -31 119 -33 111 58 -3 42 -8 88 -11 102 -3 14 -8 41 -11 60 -24 137
-71 292 -126 420 -6 14 -12 30 -12 35 -2 22 -40 124 -67 180 -16 33 -38 85
-50 115 -11 30 -24 59 -29 65 -5 5 -20 39 -33 75 -28 72 -116 250 -136 274
-15 18 -7 36 17 36 13 0 14 2 3 9 -11 7 -9 15 10 42 40 55 53 71 76 92 13 11
23 29 23 39 0 11 4 17 9 14 5 -3 17 25 26 62 9 37 22 79 27 95 6 15 8 45 5 66
-4 32 -1 40 13 44 22 6 31 51 14 76 -11 16 -11 21 6 36 10 9 17 22 14 29 -6
16 34 59 67 73 17 8 28 22 32 42 5 22 12 31 27 31 11 0 20 7 20 15 0 8 7 15
15 15 8 0 15 6 15 13 0 13 73 67 91 67 5 0 9 9 9 21 0 16 4 19 19 14 13 -4 26
2 39 16 11 11 25 18 30 15 6 -3 17 0 25 8 8 8 23 14 33 14 11 -1 34 2 53 6 23
6 31 5 27 -3 -8 -12 21 -4 41 11 7 5 21 7 33 3 16 -5 20 -2 20 16 l0 23 21
-23 c14 -15 24 -19 32 -12 8 6 18 5 31 -4 12 -10 25 -11 42 -5 15 6 26 6 29
-1 4 -5 15 -7 26 -4 14 5 19 2 19 -10 0 -12 6 -16 19 -12 15 4 22 -2 30 -24 6
-17 6 -27 1 -24 -5 3 -12 0 -16 -6 -4 -7 -3 -9 4 -5 13 8 28 -14 15 -23 -5 -3
-12 -13 -15 -22 -5 -13 -2 -16 14 -11 15 4 19 2 14 -7 -4 -6 -3 -18 4 -26 9
-10 7 -15 -8 -19 -11 -4 -28 -16 -38 -28 -19 -21 -19 -21 1 -16 18 4 53 -17
43 -27 -2 -2 -22 -8 -45 -13 -30 -7 -43 -6 -46 1 -3 9 -10 8 -28 0 -13 -6 -18
-12 -11 -12 8 -1 4 -10 -10 -23 -13 -13 -30 -32 -38 -43 -14 -19 -14 -20 6 -3
11 10 26 18 32 18 7 0 12 6 12 14 0 8 7 16 15 20 17 6 21 -9 5 -19 -5 -3 -10
-17 -10 -31 0 -13 -5 -23 -12 -21 -6 1 -17 -9 -24 -22 -7 -13 -20 -28 -29 -33
-13 -8 -14 -13 -4 -24 9 -11 9 -14 -1 -14 -9 0 -10 -3 -1 -13 6 -8 8 -17 4
-20 -3 -4 -1 -7 5 -7 6 0 14 9 17 21 4 11 19 25 33 31 22 9 23 12 9 15 -23 6
-22 23 2 23 11 0 21 -9 24 -22 5 -17 9 -19 20 -10 8 7 17 9 20 6 7 -8 -36 -44
-52 -44 -6 0 -11 -7 -11 -15 0 -8 5 -15 10 -15 6 0 5 -6 -2 -14 -7 -8 -14 -10
-16 -6 -2 5 -9 7 -17 4 -10 -4 -12 1 -8 18 6 22 5 22 -13 7 -10 -9 -26 -14
-34 -12 -11 3 -12 2 -2 -5 10 -6 10 -15 2 -37 -9 -23 -7 -30 7 -41 17 -12 16
-13 -7 -14 -18 0 -21 -3 -11 -9 7 -5 14 -21 14 -35 0 -36 12 -41 25 -11 13 29
24 31 42 10 9 -11 10 -19 3 -26 -14 -14 -4 -49 14 -49 9 0 13 -6 10 -15 -4 -8
-2 -17 4 -21 6 -3 8 -12 5 -20 -3 -7 1 -26 9 -41 22 -44 51 -110 96 -216 23
-53 45 -100 50 -102 4 -3 -1 15 -12 41 -12 25 -23 64 -25 85 -4 34 -2 39 18
44 21 5 23 11 22 65 -2 69 10 98 21 51 4 -18 9 -31 11 -28 2 2 -3 38 -11 79
-9 42 -15 107 -13 145 3 70 3 70 23 50 11 -11 14 -17 8 -13 -14 8 -18 -6 -6
-18 15 -14 12 -38 -4 -32 -13 5 -14 4 -4 -8 7 -8 8 -16 4 -18 -4 -3 -2 -3 5
-1 15 3 48 -25 39 -34 -3 -3 6 -16 20 -29 20 -18 22 -24 9 -24 -23 0 -20 -17
5 -25 11 -4 18 -9 15 -12 -3 -3 6 -20 19 -38 14 -17 25 -39 25 -48 0 -10 4
-17 8 -17 5 0 26 -26 48 -57 21 -32 42 -61 47 -64 4 -3 5 -13 1 -22 -3 -10 -1
-17 5 -17 6 0 30 -13 52 -30 23 -16 69 -43 103 -59 102 -49 176 -81 186 -81 6
0 10 -4 10 -8 0 -4 14 -13 31 -19 17 -7 28 -16 25 -21 -5 -8 8 -13 64 -26 34
-8 98 -32 110 -42 17 -14 102 -45 130 -47 10 -1 16 -7 13 -15 -4 -10 1 -11 21
-6 14 3 26 2 26 -2 0 -5 52 -10 116 -12 91 -2 120 0 133 12 9 8 32 14 53 12
21 -1 39 2 40 6 2 4 12 9 24 11 11 1 31 13 44 25 13 12 29 23 34 23 6 1 18 2
26 3 8 0 14 8 12 16 -2 8 0 12 4 7 4 -4 18 3 31 15 13 12 23 18 23 13 0 -4 9
0 20 10 11 10 20 15 20 11 0 -4 15 7 33 23 17 17 37 31 43 31 6 0 16 10 23 23
7 13 21 29 32 36 19 11 20 10 14 -10 -5 -15 -4 -19 5 -14 9 6 11 -10 6 -68 -6
-71 -66 -259 -140 -435 -13 -31 -31 -82 -38 -112 -8 -30 -34 -89 -58 -130 -24
-41 -48 -85 -54 -97 -6 -13 -14 -23 -18 -23 -5 0 -8 -4 -8 -10 0 -5 -8 -18
-17 -29 -10 -10 -36 -38 -58 -61 -22 -24 -54 -49 -72 -56 -17 -8 -41 -27 -52
-43 -11 -16 -32 -32 -46 -35 -14 -4 -25 -11 -25 -16 0 -5 -16 -17 -35 -26 -19
-9 -35 -22 -35 -29 0 -7 -10 -16 -22 -21 -15 -5 27 -9 115 -11 112 -3 141 -1
153 11 8 9 14 18 14 21 -1 3 11 22 25 43 59 86 196 313 252 418 12 22 45 110
73 195 60 179 86 346 76 489 -4 47 -3 90 1 95 5 6 22 15 38 20 27 10 33 7 63
-21 17 -17 32 -39 32 -48 0 -9 10 -27 23 -40 12 -12 40 -60 62 -107 22 -46 44
-87 49 -90 5 -4 19 -27 31 -50 12 -24 29 -57 38 -74 9 -16 28 -59 43 -95 45
-111 50 -124 72 -170 39 -82 62 -141 62 -157 0 -9 14 -45 30 -80 17 -34 30
-69 30 -76 0 -7 9 -30 20 -52 11 -22 20 -47 20 -57 0 -10 14 -37 30 -60 17
-23 28 -48 26 -57 -5 -16 25 -61 41 -61 4 0 15 13 24 28 16 28 15 29 -17 65
-33 35 -45 77 -24 77 16 0 -10 35 -34 46 -25 11 -34 44 -13 44 22 0 -3 77 -32
99 -20 15 -21 19 -7 30 16 13 15 14 -17 79 -9 19 -17 38 -17 43 0 5 -18 29
-40 51 -38 40 -53 67 -29 52 16 -9 1 38 -16 50 -9 7 -10 17 -3 38 9 25 7 32
-10 43 -21 15 -36 55 -21 55 5 0 3 12 -4 28 -17 33 -7 78 16 76 9 -1 17 5 17
13 0 10 -6 12 -20 8 -12 -4 -20 -2 -20 5 0 6 -4 8 -10 5 -5 -3 -10 -17 -10
-31 0 -27 -18 -33 -20 -6 -1 9 -1 45 0 78 1 54 -1 62 -20 67 -11 3 -20 1 -20
-4 0 -5 -7 -9 -15 -9 -8 0 -15 -5 -15 -11 0 -5 -4 -8 -9 -5 -5 3 -7 15 -4 26
3 12 0 20 -7 20 -7 0 -10 8 -7 20 3 11 1 20 -5 20 -6 0 -8 7 -4 15 3 9 0 15
-9 15 -9 0 -15 10 -15 25 0 21 -5 25 -30 25 -20 0 -30 5 -30 15 0 8 4 15 9 15
5 0 9 17 9 38 1 43 -11 71 -23 53 -4 -7 -2 -18 5 -26 19 -23 -9 -29 -31 -6
-11 12 -24 21 -28 21 -5 0 -18 14 -29 32 -21 32 -21 32 -1 46 11 8 18 20 15
28 -3 8 3 16 17 19 13 4 29 20 36 38 8 18 43 65 78 104 36 40 62 73 58 73 -4
0 4 9 18 20 14 11 29 29 32 40 4 11 11 18 16 15 5 -3 7 0 4 7 -2 7 2 22 11 33
15 20 15 20 32 -3 10 -13 33 -25 55 -29 27 -4 42 -14 55 -35 17 -29 44 -42 78
-36 15 2 18 -2 17 -20 -3 -20 0 -22 24 -16 23 6 25 5 20 -15 -5 -20 -3 -22 19
-17 24 6 34 -7 14 -19 -19 -11 12 -45 36 -39 20 5 23 1 26 -28 2 -23 8 -33 20
-33 9 0 20 -4 24 -8 4 -4 16 -7 26 -7 10 0 18 -5 18 -11 0 -6 7 -9 15 -5 8 3
19 -2 24 -12 6 -10 11 -12 11 -4 0 17 20 15 20 -3 0 -8 8 -15 19 -15 10 0 24
-6 31 -14 6 -8 19 -12 27 -9 12 5 15 2 10 -10 -4 -11 -1 -17 8 -17 8 0 15 -5
15 -11 0 -6 7 -9 15 -5 9 3 20 -3 27 -14 7 -11 15 -20 19 -20 13 0 87 -79 91
-96 2 -11 10 -19 18 -19 19 0 40 -20 40 -38 0 -8 11 -22 25 -31 14 -9 24 -20
24 -24 -4 -26 3 -42 20 -42 23 0 36 -16 21 -25 -16 -10 -1 -25 26 -25 15 0 24
-5 22 -13 -4 -24 13 -87 25 -87 15 -1 62 -76 71 -114 4 -15 10 -26 13 -22 9 8
34 -14 27 -25 -3 -5 0 -9 5 -9 6 0 11 -11 11 -24 0 -13 7 -29 15 -36 8 -6 17
-22 21 -33 8 -26 80 -96 111 -108 l23 -8 -21 -36 c-12 -19 -19 -42 -16 -49 3
-8 0 -17 -7 -19 -17 -7 -111 -195 -102 -204 11 -11 148 90 239 176 202 193
332 427 399 719 l22 97 3 1404 4 1404 -26 -27 -25 -27 4 30 c2 17 -1 28 -5 25
-5 -3 -9 1 -10 8 -1 16 -19 -38 -23 -70 -4 -30 -11 -35 -35 -27 -14 4 -21 15
-21 33 0 46 -24 68 -41 40 -13 -20 -11 -28 6 -22 9 4 15 0 15 -10 0 -22 -27
-20 -34 2 -3 9 -2 31 2 47 9 34 42 47 43 18 0 -13 2 -14 6 -3 11 35 29 66 46
78 9 7 17 18 17 24 0 11 29 37 43 38 4 0 7 -7 7 -16 0 -10 -6 -14 -14 -11 -8
3 -17 -1 -20 -9 -7 -18 4 -18 32 2 12 8 20 19 17 24 -3 5 -1 11 5 15 18 11 10
23 -11 18 -16 -4 -20 -2 -17 8 3 8 13 13 22 13 22 -2 20 12 -4 36 -11 11 -15
22 -10 25 6 4 10 1 10 -5 0 -6 5 -8 10 -5 6 3 10 22 10 41 0 32 -10 40 -42 35
-13 -2 -8 13 12 39 11 14 20 20 20 13 0 -6 -4 -15 -10 -18 -15 -9 -12 -22 5
-22 12 0 14 25 12 159 -1 120 -5 161 -15 167 -11 7 -11 12 -1 28 7 13 9 28 4
39 -10 23 -12 31 -13 67 -1 16 -6 26 -12 22 -6 -3 -19 -3 -31 0 -19 6 -19 7 6
31 25 23 25 24 4 24 -18 0 -21 5 -17 30 2 16 0 32 -6 34 -7 3 -5 9 4 15 12 9
11 11 -8 11 -24 0 -24 6 -4 59 4 10 0 13 -16 9 -17 -5 -22 -2 -22 14 0 13 5
18 14 15 10 -4 13 -1 9 8 -3 8 -9 13 -13 10 -4 -2 -7 7 -7 21 0 14 -6 31 -12
37 -8 8 -11 3 -11 -18 0 -31 -34 -85 -45 -73 -4 3 -1 16 5 28 12 23 7 31 -25
44 -5 2 5 20 24 39 30 32 31 36 13 34 -11 0 -20 -6 -19 -12 1 -5 -4 -9 -11 -7
-14 3 -96 -47 -89 -55 3 -2 14 0 26 6 21 12 44 -5 23 -18 -6 -3 -13 -18 -17
-32 -3 -14 -17 -38 -31 -54 -13 -15 -24 -32 -24 -36 0 -5 -10 -13 -21 -20 -16
-8 -23 -8 -29 1 -5 8 -11 7 -23 -4 -17 -18 -33 -5 -21 16 4 7 9 28 11 48 3 32
2 33 -11 17 -8 -11 -12 -25 -10 -31 3 -7 -3 -19 -12 -27 -15 -12 -20 -10 -45
21 -30 36 -36 55 -19 65 6 3 10 11 10 16 0 6 -5 6 -12 -1 -7 -6 -22 -17 -33
-25 -11 -8 -13 -13 -5 -10 18 6 50 -43 42 -65 -7 -19 -28 -40 -40 -40 -5 0
-15 -7 -22 -15 -15 -18 1 -20 18 -3 9 9 12 8 12 -5 0 -13 -8 -17 -39 -15 -22
1 -48 -6 -62 -15 -13 -10 -33 -17 -44 -17 -20 1 -20 1 -1 15 11 8 28 15 38 15
10 0 18 7 18 16 0 9 8 23 18 30 15 12 15 13 1 14 -18 0 -33 26 -23 42 3 5 12
7 20 4 8 -3 14 1 14 11 0 9 8 26 17 37 10 12 1 6 -19 -13 -21 -19 -41 -30 -48
-26 -9 6 -9 10 1 17 11 8 11 9 -1 5 -8 -2 -15 -14 -14 -26 0 -14 -4 -20 -12
-17 -8 3 -11 0 -7 -9 3 -9 -3 -18 -13 -22 -11 -4 -37 -18 -59 -31 -28 -16 -33
-21 -15 -17 21 5 18 0 -20 -34 -25 -22 -50 -39 -57 -36 -7 2 -15 -1 -19 -7 -4
-7 -9 -6 -15 3 -5 9 -13 4 -26 -19 -12 -21 -23 -30 -34 -27 -18 6 -29 -13 -35
-58 -2 -16 -8 -36 -13 -45 -6 -10 -4 -20 5 -30 11 -10 13 -32 10 -83 -5 -77
-10 -89 -34 -88 -11 0 -12 3 -4 6 6 2 12 9 12 14 0 6 -5 7 -11 3 -6 -3 -16 0
-21 7 -8 11 -9 11 -5 -1 3 -11 -2 -16 -15 -17 -17 -2 -18 0 -6 14 9 12 10 15
1 9 -8 -4 -13 -1 -13 9 0 8 11 20 24 25 32 12 40 27 17 33 -13 3 -21 -2 -26
-17 -7 -20 -7 -20 -15 4 -7 23 -15 12 -11 -18 1 -7 -5 -15 -14 -18 -21 -8 -19
-25 3 -18 9 3 6 -1 -7 -9 -23 -14 -23 -15 -5 -26 19 -11 19 -11 -1 -26 -23
-18 -50 -16 -50 5 0 8 -4 21 -8 27 -9 14 16 57 26 46 4 -3 7 -1 7 5 0 5 -5 12
-12 14 -20 7 1 27 59 55 30 15 50 29 44 31 -7 2 -18 -1 -25 -7 -10 -8 -16 -8
-23 1 -6 9 0 21 19 39 23 22 28 24 31 10 3 -9 5 -6 6 9 0 14 10 32 20 39 13
10 18 22 15 40 -3 18 -2 22 5 12 7 -10 11 -6 16 18 7 34 21 41 28 14 3 -10 3
2 0 27 -3 32 1 59 16 93 12 27 21 56 21 65 0 9 6 28 13 42 11 21 11 28 1 38
-10 9 -13 5 -16 -20 -2 -17 -9 -34 -17 -36 -11 -4 -13 4 -8 39 5 35 3 40 -5
24 -6 -10 -11 -42 -10 -69 1 -68 -13 -84 -44 -51 -13 15 -24 21 -24 16 0 -6 9
-20 21 -32 27 -27 24 -114 -4 -114 -19 0 -71 -44 -63 -52 3 -3 17 4 32 16 15
12 30 19 33 15 3 -3 -2 -10 -12 -15 -9 -6 -17 -16 -17 -24 0 -7 -6 -20 -13
-27 -7 -7 -23 -28 -36 -46 -22 -32 -24 -33 -40 -15 -34 39 -39 57 -22 70 9 7
11 13 4 13 -6 0 -9 9 -6 20 6 23 14 25 32 8 11 -11 11 -9 0 9 -16 27 -36 19
-44 -18 -6 -24 -10 -27 -25 -19 -15 8 -18 6 -16 -14 0 -13 4 -22 8 -20 4 3 16
-4 27 -15 17 -17 19 -30 16 -68 -3 -26 -12 -54 -21 -63 -14 -13 -14 -13 -8 5
4 11 12 26 18 34 9 12 8 12 -11 3 -12 -7 -29 -9 -37 -6 -10 4 -16 1 -16 -8 0
-8 -15 -22 -34 -31 -27 -12 -33 -20 -29 -37 3 -12 -2 -29 -12 -40 -10 -11 -15
-23 -11 -27 12 -12 48 37 44 61 -3 15 1 22 13 23 11 1 19 -7 22 -23 3 -17 0
-24 -10 -24 -9 0 -13 -6 -9 -15 3 -9 -3 -19 -17 -26 -12 -7 -25 -17 -29 -23
-9 -14 -39 24 -33 42 3 7 0 10 -5 7 -6 -3 -10 -13 -10 -21 0 -8 -7 -14 -15
-14 -8 0 -15 4 -15 9 0 5 7 16 15 25 8 8 15 20 15 27 0 9 3 9 14 0 19 -16 28
0 10 17 -11 10 -17 9 -34 -8 -25 -25 -30 -25 -30 1 0 33 39 82 62 76 12 -4 18
-1 15 6 -3 7 -10 11 -16 9 -20 -4 21 57 42 64 15 5 17 8 6 14 -10 7 -10 12 1
27 12 15 11 15 -9 -2 -13 -11 -34 -41 -47 -67 -22 -44 -55 -80 -42 -46 4 8 2
21 -3 29 -7 11 -9 10 -9 -5 0 -26 -17 -9 -25 26 -5 21 -2 29 14 38 12 6 25 8
30 5 5 -3 14 8 19 24 6 17 24 37 42 46 18 9 29 19 26 22 -3 3 -12 0 -21 -7
-21 -17 -20 3 1 35 20 31 54 34 54 5 0 -11 6 -20 13 -20 9 0 9 -2 -1 -9 -11
-6 -9 -9 6 -13 21 -6 42 8 42 27 0 5 -5 3 -10 -5 -9 -13 -11 -13 -20 0 -5 8
-10 23 -10 33 0 9 -7 17 -15 17 -8 0 -15 6 -15 13 0 7 -12 24 -26 36 l-26 23
7 -32 c7 -33 -25 -120 -45 -120 -6 0 -10 -8 -10 -17 0 -14 -3 -14 -20 5 -11
12 -20 26 -20 32 0 6 -4 8 -10 5 -5 -3 -10 -17 -10 -31 0 -14 -4 -22 -10 -19
-5 3 -10 1 -10 -4 0 -6 -4 -11 -9 -11 -5 0 -7 9 -4 20 3 11 9 17 14 14 5 -3 9
3 9 13 0 11 5 24 11 30 9 9 8 18 -5 38 -9 14 -14 30 -11 35 3 5 -2 18 -12 28
-51 53 -98 118 -95 131 3 13 1 13 -12 2 -14 -11 -16 -11 -16 3 0 9 -4 15 -9
13 -5 -1 -30 16 -56 37 -35 29 -44 33 -35 17 11 -22 11 -22 -15 -5 -14 9 -24
23 -21 30 3 8 -4 18 -14 24 -11 6 -19 16 -17 22 1 6 -5 13 -13 15 -13 4 -13 3
0 -6 13 -10 13 -11 0 -11 -8 0 -22 5 -30 10 -13 9 -13 10 0 11 8 0 -2 7 -23
14 -35 13 -67 36 -67 49 0 3 15 3 33 0 l32 -5 -32 17 c-18 9 -33 21 -33 26 0
5 -5 6 -12 2 -6 -4 -9 -3 -5 2 6 11 -11 35 -38 50 -11 7 -20 18 -19 26 1 8 -6
15 -15 15 -46 4 -143 62 -152 92 -4 11 -7 11 -20 -1 -12 -12 -17 -12 -26 -3
-7 7 -9 16 -6 19 4 3 1 6 -5 6 -6 0 -9 6 -7 13 4 9 -12 13 -56 14 -34 2 -75
10 -92 18 -16 8 -38 15 -49 15 -10 0 -18 5 -18 11 0 5 -4 8 -9 5 -9 -6 -64 18
-57 25 3 2 -11 4 -30 4 -19 0 -34 -5 -34 -11 0 -7 -13 -14 -30 -16 -16 -3 -30
-1 -30 3 0 4 -11 10 -25 13 -14 4 -25 11 -25 16 0 14 13 12 29 -2 7 -7 12 -8
11 -3 -6 27 2 34 30 31 34 -4 37 16 4 23 -10 2 -21 6 -24 10 -3 3 -14 13 -25
21 -19 14 -19 14 -3 -6 17 -19 16 -20 -10 -30 -33 -13 -66 -3 -76 22 -6 15 -4
15 11 3 14 -11 15 -12 9 0 -5 8 -4 16 3 21 7 4 -9 7 -36 6 -26 -1 -66 3 -88 7
-22 4 -34 4 -28 -1z m-47 -32 c-8 -5 -24 -10 -35 -10 -17 0 -17 2 -5 10 8 5
24 10 35 10 17 0 17 -2 5 -10z m158 -7 c2 -9 -7 -13 -27 -13 -31 0 -42 14 -18
23 19 8 40 3 45 -10z m-14 -52 c4 -5 -3 -7 -14 -4 -23 6 -26 13 -6 13 8 0 17
-4 20 -9z m133 -57 c-3 -3 -12 -4 -19 -1 -8 3 -5 6 6 6 11 1 17 -2 13 -5z
m883 -430 c0 -2 -7 -4 -15 -4 -8 0 -15 4 -15 10 0 5 7 7 15 4 8 -4 15 -8 15
-10z m1480 -23 c0 -13 -26 -32 -33 -24 -8 7 11 33 24 33 5 0 9 -4 9 -9z m6
-68 c-3 -8 -6 -25 -6 -38 0 -17 -8 -26 -31 -34 -27 -9 -30 -8 -27 7 2 10 11
16 21 14 10 -2 17 4 17 13 0 9 -4 13 -10 10 -5 -3 -8 1 -5 9 3 9 7 23 10 31 2
9 11 12 20 9 9 -4 14 -13 11 -21z m-3816 7 c-8 -5 -19 -10 -25 -10 -5 0 -3 5
5 10 8 5 20 10 25 10 6 0 3 -5 -5 -10z m3875 -70 c3 -5 -1 -10 -10 -10 -9 0
-13 5 -10 10 3 6 8 10 10 10 2 0 7 -4 10 -10z m-53 -12 c-17 -17 -15 -33 3
-18 18 15 38 9 41 -14 3 -22 -25 -34 -37 -15 -7 11 -11 10 -23 -6 -9 -11 -16
-26 -16 -32 0 -15 -2 -15 -24 -7 -14 5 -14 9 3 33 10 14 16 32 14 39 -3 6 6
16 19 21 31 13 34 13 20 -1z m-278 -43 c3 -8 1 -15 -4 -15 -6 0 -10 7 -10 15
0 8 2 15 4 15 2 0 6 -7 10 -15z m-1001 -34 c2 -10 -1 -18 -8 -18 -8 0 -11 7
-7 15 3 10 1 13 -6 8 -8 -5 -10 -1 -5 10 5 13 3 15 -7 9 -9 -5 -11 -4 -6 4 10
15 32 -1 39 -28z m819 17 c5 -13 -31 -59 -41 -54 -3 1 -14 -5 -23 -16 -10 -10
-15 -18 -10 -18 4 0 -2 -7 -12 -15 -11 -8 -15 -15 -9 -15 6 0 16 6 22 14 7 8
27 14 46 14 33 0 34 -1 21 -20 -8 -11 -12 -26 -10 -33 7 -18 -16 -30 -27 -14
-6 11 -9 8 -9 -8 0 -28 -17 -39 -23 -16 -3 11 -5 6 -7 -12 -1 -16 -4 -24 -7
-17 -2 6 -11 12 -19 12 -7 0 -11 -6 -8 -14 6 -15 -29 -40 -40 -29 -3 3 -6 1
-6 -6 0 -8 7 -11 15 -7 20 7 19 0 -4 -23 -11 -11 -23 -16 -27 -13 -4 4 -4 2 0
-5 4 -7 14 -9 22 -6 9 3 19 1 23 -6 6 -9 12 -7 22 5 9 12 10 15 1 10 -16 -9
-11 29 6 46 16 16 26 3 17 -19 -5 -10 -7 -22 -6 -27 5 -21 -10 -56 -25 -56 -8
0 -13 -4 -10 -9 7 -11 -22 -23 -35 -15 -6 4 -6 11 1 19 18 22 -47 25 -72 3
-12 -10 -25 -18 -30 -18 -13 0 -9 30 5 31 6 0 1 5 -13 10 l-25 11 41 36 c23
20 45 50 49 67 6 29 20 45 39 45 4 0 6 -7 2 -15 -4 -12 -2 -13 14 -2 21 12 27
27 11 27 -15 0 12 48 34 60 18 10 18 10 -5 6 -20 -4 -14 6 35 50 63 57 71 61
77 42z m538 -14 c0 -9 -9 -18 -21 -21 -14 -4 -19 -12 -16 -24 3 -11 1 -19 -4
-19 -5 0 -9 5 -9 10 0 6 -7 10 -15 10 -8 0 -15 5 -15 10 0 6 7 10 16 10 14 0
14 3 4 15 -11 13 -10 14 3 10 8 -4 18 -2 22 4 10 17 35 13 35 -5z m-370 -4 c0
-5 -2 -10 -4 -10 -3 0 -8 5 -11 10 -3 6 -1 10 4 10 6 0 11 -4 11 -10z m125
-10 c-10 -11 -22 -20 -27 -20 -4 0 -3 9 4 20 7 11 19 20 27 20 11 0 10 -5 -4
-20z m110 -20 c-3 -5 -11 -10 -16 -10 -6 0 -7 5 -4 10 3 6 11 10 16 10 6 0 7
-4 4 -10z m-215 -10 c0 -5 -5 -10 -11 -10 -5 0 -7 5 -4 10 3 6 8 10 11 10 2 0
4 -4 4 -10z m190 -23 c0 -3 -6 -7 -14 -10 -9 -4 -13 2 -13 18 0 20 2 22 13 10
8 -7 14 -16 14 -18z m180 13 c0 -21 -15 -27 -25 -10 -7 12 2 30 16 30 5 0 9
-9 9 -20z m-1362 -14 c3 -12 -1 -17 -10 -14 -7 3 -15 13 -16 22 -3 12 1 17 10
14 7 -3 15 -13 16 -22z m912 -7 c0 -14 -17 -10 -23 5 -4 10 -1 13 9 9 7 -3 14
-9 14 -14z m350 14 c0 -14 -19 -38 -25 -32 -8 8 5 39 16 39 5 0 9 -3 9 -7z
m-410 -13 c0 -5 -5 -10 -11 -10 -5 0 -7 5 -4 10 3 6 8 10 11 10 2 0 4 -4 4
-10z m106 -3 c2 -7 -2 -28 -9 -47 l-14 -33 -1 47 c-1 43 12 62 24 33z m244
-15 c0 -11 -35 -39 -59 -47 -27 -8 -26 -1 1 30 20 23 58 35 58 17z m-340 -51
c-5 -9 -2 -21 7 -29 21 -21 12 -35 -35 -57 -32 -15 -42 -25 -42 -43 0 -20 -4
-23 -27 -20 -36 4 -42 33 -12 59 14 12 17 19 8 19 -11 0 -11 2 1 10 22 15 30
12 23 -7 -6 -15 -4 -16 9 -6 8 7 17 10 20 7 3 -2 6 7 6 20 0 14 -4 23 -9 20
-5 -3 -9 0 -9 6 0 6 7 13 16 17 8 3 20 17 26 32 10 24 11 25 18 6 4 -11 4 -26
0 -34z m445 39 c-4 -6 -2 -17 4 -24 9 -10 7 -15 -9 -19 -11 -3 -23 -1 -26 4
-3 5 0 9 5 9 6 0 11 9 11 20 0 11 5 20 11 20 5 0 7 -5 4 -10z m-1984 -26 c13
2 44 9 69 15 28 6 46 7 48 0 2 -5 8 -7 13 -3 18 11 9 -8 -13 -27 l-23 -20 29
18 c41 25 58 26 46 3 -7 -13 -6 -19 5 -23 7 -3 16 -1 19 6 3 7 3 -1 0 -18 -4
-23 -3 -27 5 -15 6 8 11 11 11 5 0 -5 4 -3 10 5 7 12 10 11 16 -5 5 -11 14
-26 21 -33 7 -7 13 -20 13 -28 0 -8 4 -14 9 -14 5 0 13 -10 17 -22 3 -13 21
-43 39 -68 18 -25 52 -81 75 -125 23 -44 47 -85 52 -91 19 -24 65 -171 67
-214 1 -25 3 -137 4 -250 2 -140 8 -229 19 -280 47 -222 52 -450 19 -804 -6
-59 -8 -112 -5 -117 3 -5 1 -9 -5 -9 -5 0 -10 -8 -9 -17 0 -10 -5 -47 -11 -83
-10 -59 -14 -88 -27 -175 -3 -16 -6 -41 -7 -55 -2 -14 -8 -24 -16 -22 -7 1
-10 -2 -5 -9 4 -7 0 -18 -10 -24 -13 -10 -14 -18 -7 -38 11 -28 4 -70 -10 -61
-5 3 -9 0 -9 -6 0 -6 -3 -9 -7 -7 -5 3 -9 -10 -10 -29 -2 -19 -12 -50 -22 -70
-15 -27 -17 -42 -10 -61 10 -27 3 -47 -13 -37 -7 4 -6 9 2 14 8 5 3 9 -13 12
-17 3 -24 1 -21 -7 3 -6 0 -22 -5 -36 l-10 -24 -2 25 c-1 14 0 32 1 40 1 12
-1 12 -11 3 -7 -7 -14 -27 -15 -45 -2 -18 -10 -49 -18 -68 l-15 -35 5 50 c3
28 10 60 16 71 5 12 8 30 6 40 -3 14 -10 7 -25 -26 -14 -28 -18 -49 -12 -54
13 -14 11 -26 -3 -21 -16 6 -63 -25 -64 -42 -3 -39 -5 -44 -14 -38 -5 3 -10
-3 -10 -14 0 -11 -6 -23 -12 -27 -7 -4 -10 -4 -6 1 5 5 -2 13 -14 19 -13 6
-24 20 -26 31 -2 15 -1 17 6 7 7 -11 10 -8 14 10 3 18 0 24 -14 24 -10 0 -18
-4 -18 -9 0 -4 -5 -5 -10 -2 -6 4 -8 10 -5 15 3 5 -4 11 -14 15 -13 4 -18 12
-14 21 4 10 -5 25 -22 40 -16 13 -25 27 -21 31 4 4 11 1 16 -7 8 -13 12 -13
27 3 11 10 13 17 5 17 -7 0 -21 9 -32 20 -14 14 -16 20 -6 20 8 0 16 -7 20
-15 3 -10 19 -15 42 -15 28 0 35 3 30 15 -3 8 -1 15 4 15 5 0 7 7 4 15 -4 8
-10 13 -15 10 -4 -3 -6 11 -4 30 3 23 1 34 -5 30 -5 -3 -10 -1 -10 4 0 6 -8
11 -17 11 -15 0 -16 -2 -3 -10 12 -8 11 -10 -7 -10 -34 0 -52 24 -46 64 3 25
-1 39 -15 52 -11 11 -22 28 -25 39 -4 18 -5 18 -6 -2 0 -13 -6 -23 -12 -23 -5
0 -7 -4 -4 -10 3 -5 -6 -22 -21 -37 l-27 -27 7 37 c5 26 3 37 -5 37 -8 0 -6 7
4 18 23 26 23 49 0 31 -9 -8 -14 -9 -10 -3 4 7 0 17 -7 23 -20 17 -28 -2 -16
-34 5 -14 6 -24 1 -21 -5 3 -11 -1 -14 -8 -3 -8 -1 -17 6 -19 7 -2 9 -7 5 -11
-3 -4 -17 0 -30 8 -31 20 -39 12 -26 -26 8 -21 7 -33 -1 -41 -14 -14 -15 -40
-1 -32 6 4 9 -5 8 -19 -1 -15 -6 -26 -11 -26 -4 0 -6 -4 -3 -9 7 -10 -49 -33
-58 -24 -3 4 -14 -1 -23 -9 -12 -10 -46 -17 -98 -20 -60 -4 -90 -11 -118 -28
-21 -13 -51 -24 -65 -26 -38 -5 -92 15 -92 32 0 9 -4 13 -9 10 -5 -3 -8 2 -7
12 1 12 -5 16 -22 14 -13 -2 -30 2 -38 8 -11 10 -14 9 -14 -8 0 -20 -1 -21
-29 -4 -16 9 -27 21 -24 26 4 5 -3 7 -15 4 -12 -4 -20 -2 -16 3 3 5 -2 9 -11
9 -9 0 -13 -4 -10 -10 6 -10 -22 -3 -40 10 -5 4 -22 6 -37 5 -15 -2 -32 3 -39
11 -6 7 -15 11 -20 8 -5 -3 -9 2 -9 12 0 12 7 15 28 12 15 -3 35 -9 45 -13 12
-5 17 -3 17 8 0 8 -6 17 -12 20 -10 3 -10 7 0 19 7 9 9 24 5 34 -4 11 7 4 25
-16 23 -24 31 -42 28 -56 -4 -14 -1 -21 9 -21 10 0 15 11 15 31 0 21 3 27 9
18 7 -11 9 -11 14 2 4 9 4 24 1 34 -5 13 -4 14 4 3 8 -11 12 -10 22 5 10 18
11 17 7 -4 -3 -12 -1 -20 4 -16 5 3 9 1 9 -4 0 -6 7 -12 15 -16 9 -3 15 0 15
10 0 8 -4 13 -9 9 -5 -3 -11 3 -13 12 -4 18 40 70 54 65 4 -1 8 4 9 10 0 7 4
3 9 -9 5 -13 18 -23 29 -23 10 0 22 -7 25 -16 9 -24 7 -36 -6 -28 -7 5 -8 3
-2 -7 5 -8 9 -18 9 -23 0 -5 6 -11 14 -14 9 -3 11 0 6 8 -4 7 -2 16 6 21 10 6
11 9 2 9 -7 0 -13 9 -13 20 0 11 5 20 10 20 6 0 10 -4 10 -10 0 -17 39 -50 60
-50 24 0 81 60 75 78 -3 7 0 10 5 7 14 -9 12 -35 -2 -35 -9 0 -9 -3 1 -9 20
-13 41 -2 41 20 0 11 6 22 14 25 19 7 13 73 -10 112 -14 25 -19 28 -31 17 -7
-8 -13 -18 -13 -24 0 -6 -6 -8 -13 -5 -7 2 -23 -7 -34 -20 -20 -22 -25 -24
-53 -13 -17 6 -28 17 -26 24 3 8 -11 14 -42 19 -52 8 -107 54 -118 100 -3 13
-11 24 -16 24 -6 0 -16 7 -22 15 -6 8 -24 16 -40 17 -17 2 -38 14 -52 31 -18
21 -33 28 -67 31 -58 3 -70 12 -56 38 8 14 18 19 35 15 13 -2 24 1 24 6 0 6 6
3 13 -8 8 -10 19 -15 25 -11 7 4 12 3 12 -2 0 -15 43 -23 52 -9 5 8 8 8 8 1 0
-7 9 -14 20 -17 11 -3 20 -1 20 3 0 5 7 16 16 24 10 10 11 16 3 16 -8 0 -8 4
2 16 10 13 10 17 -1 24 -8 5 -11 12 -7 16 4 4 2 13 -4 21 -6 7 -7 13 -2 13 5
0 9 9 10 20 1 11 -1 19 -5 16 -4 -2 -13 2 -19 9 -10 11 -8 15 10 21 12 5 25 7
29 6 4 -1 4 6 1 15 -5 12 -3 14 8 9 8 -4 5 0 -5 8 -17 14 -18 16 -3 16 21 0
23 38 2 46 -8 4 -15 10 -15 16 0 5 3 7 8 5 4 -3 7 16 7 41 1 27 6 47 13 50 16
5 15 35 -3 80 -9 20 -18 70 -21 112 -3 41 -7 101 -9 132 -2 39 0 60 10 68 10
9 6 18 -23 50 -28 32 -42 40 -69 40 -25 0 -32 3 -27 13 5 8 2 8 -9 -2 -11 -9
-17 -10 -17 -2 0 6 -10 11 -23 11 -13 0 -27 4 -33 10 -5 5 -24 12 -42 14 -17
2 -39 9 -48 17 -21 17 -78 38 -124 44 -89 13 -100 16 -94 27 4 7 -9 9 -40 7
-25 -2 -46 0 -46 5 0 4 -9 6 -20 3 -11 -3 -17 -1 -14 4 5 9 -24 6 -63 -6 -7
-2 -15 5 -18 16 -5 15 -12 18 -32 13 -18 -5 -24 -3 -19 4 8 13 -40 7 -86 -10
-15 -5 -31 -7 -37 -4 -6 4 -23 1 -38 -7 -15 -8 -33 -12 -40 -10 -6 2 -26 -3
-43 -12 -27 -14 -33 -14 -52 0 -26 18 -38 19 -38 4 0 -5 5 -7 10 -4 6 3 10 1
10 -6 0 -7 11 -27 26 -46 l25 -33 -25 0 c-14 0 -28 -4 -31 -10 -3 -5 0 -10 7
-10 10 0 9 -3 -2 -11 -11 -7 -12 -12 -3 -15 13 -6 7 -31 -14 -56 -8 -9 -12
-22 -8 -27 3 -6 1 -11 -4 -11 -6 0 -11 -5 -11 -11 0 -6 6 -9 14 -6 8 3 17 -1
20 -9 3 -9 11 -12 18 -8 8 5 9 2 5 -9 -3 -10 -2 -17 3 -17 6 0 9 -3 8 -7 -4
-19 16 -79 31 -94 18 -17 58 -32 125 -46 29 -6 43 -16 56 -40 13 -25 20 -29
29 -20 10 9 12 9 9 -3 -2 -11 4 -14 25 -12 15 2 27 -1 27 -6 0 -25 129 -37
188 -18 27 9 20 26 -11 26 -32 0 -78 42 -66 61 7 11 9 11 9 -4 0 -11 4 -15 12
-11 7 5 8 3 3 -7 -5 -9 -1 -7 11 3 13 11 30 16 47 13 15 -3 27 -1 27 4 0 5 11
8 24 7 14 -2 30 1 38 5 13 9 0 11 -84 13 -20 1 -43 7 -49 14 -10 10 -3 12 38
12 61 0 96 24 113 78 15 44 30 63 37 44 3 -6 8 -10 13 -7 5 3 17 -5 27 -18 10
-13 26 -23 35 -21 17 2 32 -21 23 -36 -3 -5 -18 -8 -33 -8 -15 0 -40 -7 -57
-16 l-30 -16 60 0 c80 -1 95 -2 95 -9 0 -10 -17 -33 -24 -32 -24 3 -38 -2 -60
-22 -14 -13 -23 -27 -20 -30 3 -3 -3 -3 -13 -1 -13 4 -20 0 -20 -9 0 -13 6
-13 42 -3 l41 13 -2 -41 c-2 -23 -6 -56 -10 -73 -5 -24 -3 -33 7 -33 11 0 11
-2 -1 -10 -13 -8 -11 -11 8 -16 12 -4 22 -11 22 -18 0 -6 8 -20 17 -31 13 -16
15 -17 10 -2 -8 21 6 22 24 1 9 -11 10 -17 1 -23 -7 -4 -8 -12 -2 -21 12 -18
13 -33 3 -27 -9 6 -34 -19 -27 -26 2 -2 -9 -19 -26 -37 -16 -18 -30 -38 -30
-44 0 -7 -13 -33 -30 -59 -16 -26 -30 -50 -30 -53 0 -3 -9 -19 -20 -35 -13
-18 -22 -47 -23 -79 -2 -45 1 -55 23 -72 14 -11 34 -27 45 -37 12 -10 26 -16
32 -14 18 6 50 -14 56 -36 2 -11 -3 -25 -14 -35 -18 -15 -19 -14 -19 2 -1 16
-1 16 -14 0 -15 -21 -42 -24 -48 -6 -4 10 -8 9 -20 -2 -35 -33 -58 -49 -58
-40 0 6 9 19 20 30 11 11 17 20 13 21 -62 9 -103 -3 -103 -31 0 -12 -2 -12 -9
-1 -6 9 -11 10 -15 2 -4 -6 -5 -15 -2 -19 3 -5 -7 -15 -22 -23 -36 -19 -53
-35 -44 -44 4 -5 2 -5 -5 -2 -6 4 -17 1 -25 -7 -50 -51 -76 -85 -70 -92 4 -4
1 -4 -6 0 -10 6 -10 11 -2 21 9 10 7 13 -7 11 -10 -2 -18 -9 -19 -17 0 -8 -2
-21 -2 -29 -2 -19 -70 -52 -78 -38 -3 5 0 16 8 25 11 14 11 16 -1 8 -11 -6
-13 -4 -8 7 4 12 1 14 -14 11 -10 -3 -19 -12 -19 -19 0 -8 -5 -14 -11 -14 -6
0 -9 6 -6 14 3 8 1 17 -6 19 -9 3 -9 10 1 29 17 32 60 57 91 52 24 -4 51 11
51 28 0 6 -7 5 -15 -2 -11 -9 -15 -9 -15 -1 0 7 -4 9 -10 6 -5 -3 -10 -1 -10
6 0 8 -6 6 -18 -4 -10 -10 -22 -14 -25 -10 -4 3 -7 -1 -7 -10 0 -20 -10 -21
-34 -4 -17 13 -17 14 0 28 11 8 15 9 10 2 -5 -9 0 -12 18 -11 14 1 23 4 21 6
-2 3 0 14 6 24 12 23 2 99 -10 79 -13 -20 -22 29 -9 52 7 14 7 17 -1 13 -6 -4
-11 0 -11 8 0 21 -10 20 -26 -1 -11 -16 -13 -16 -19 10 -6 21 -3 31 11 42 15
11 16 15 4 16 -8 1 -19 1 -24 0 -5 -1 -5 6 -1 16 4 10 8 26 9 36 0 9 4 17 9
17 4 0 5 5 2 11 -4 5 1 20 12 31 18 21 18 21 -4 9 -13 -6 -23 -9 -23 -5 0 3
-7 1 -15 -6 -20 -17 -19 -31 3 -23 13 5 14 3 5 -7 -9 -10 -16 -9 -34 3 -20 14
-20 17 -6 23 9 3 17 10 17 16 0 5 -4 6 -10 3 -6 -4 -11 6 -11 22 -1 17 -3 21
-6 11 -5 -20 -12 -22 -33 -8 -8 5 -10 10 -4 10 6 0 11 7 11 15 0 8 -9 15 -20
15 -14 0 -18 5 -14 20 4 15 0 20 -13 20 -10 0 -20 5 -22 12 -5 15 -38 20 -35
5 1 -7 -6 -11 -15 -11 -10 1 -15 -2 -12 -7 3 -5 0 -9 -5 -9 -6 0 -11 8 -11 18
-1 15 -3 14 -19 -5 -25 -29 -48 -16 -31 18 7 13 9 21 5 17 -17 -16 -31 17 -25
54 4 20 3 35 -1 32 -14 -8 -11 10 4 25 10 10 9 11 -5 6 -13 -5 -19 2 -28 37
-7 23 -15 47 -18 52 -3 5 0 6 5 3 6 -4 13 0 17 8 3 8 2 15 -2 15 -4 0 -8 19
-10 42 -2 24 -10 47 -20 55 -9 8 -12 12 -5 9 6 -4 14 -2 18 4 3 5 1 10 -4 10
-15 0 2 280 19 325 5 12 6 26 3 29 -10 9 19 66 33 66 7 0 11 6 8 14 -3 8 3 23
14 34 11 11 26 30 32 42 6 12 17 20 23 17 7 -3 13 7 14 24 4 67 6 68 37 42 21
-18 21 -18 3 4 -11 12 -16 27 -12 33 3 6 3 10 -2 9 -21 -4 -21 3 -1 23 13 13
17 23 10 26 -7 2 -5 14 8 37 19 33 18 46 -3 41 -7 -2 -9 -1 -4 1 4 3 5 8 2 13
-3 4 4 6 15 3 11 -3 20 -12 20 -19 0 -8 4 -14 9 -14 5 0 8 6 7 13 -3 21 -17
38 -27 32 -5 -3 -6 1 -3 9 3 9 10 16 16 16 5 0 6 5 2 11 -5 8 -8 8 -14 0 -5
-9 -11 -7 -20 4 -7 9 -9 15 -4 14 5 -1 23 -1 39 0 27 2 28 3 12 15 -16 12 -16
15 -2 29 13 14 13 16 -3 19 -9 2 -22 -3 -28 -10 -9 -12 -11 -12 -11 1 0 9 6
18 14 21 17 7 17 26 0 26 -9 0 -12 9 -9 29 2 16 -1 32 -7 35 -17 11 -13 72 6
87 15 12 16 12 10 -3 -7 -21 -3 -22 25 -7 18 10 20 9 15 -5 -7 -18 8 -32 18
-16 12 19 33 11 28 -10 -6 -22 0 -25 25 -11 10 5 41 12 70 15 52 6 52 6 41
-17 -9 -18 -9 -20 2 -9 17 15 33 16 23 0 -4 -7 8 -1 27 12 19 13 38 30 42 37
10 17 32 17 46 -1 9 -11 9 -15 -1 -19 -7 -3 -2 -6 12 -7 23 -1 23 -2 5 -10
l-20 -9 20 -2 c48 -4 78 1 96 17 10 9 19 14 19 11 0 -4 17 2 37 13 21 11 43
20 50 20 6 0 14 6 17 13 3 6 3 1 0 -13 -5 -20 -4 -23 7 -12 7 6 21 12 31 12
12 0 15 5 11 15 -3 9 2 22 13 29 16 12 20 12 30 -2 9 -12 13 -12 19 -2 6 9 4
11 -6 5 -8 -5 -11 -4 -6 0 4 5 17 10 29 12 12 2 29 10 38 18 9 8 22 15 28 15
7 0 12 5 12 10 0 6 4 10 10 10 5 0 7 -8 3 -17 -5 -15 -3 -16 8 -5 16 14 33 16
24 2 -3 -5 -4 -10 -1 -10 4 0 36 59 36 68 0 2 -9 -6 -19 -19 -11 -13 -22 -21
-26 -17 -11 10 2 25 51 59 39 27 44 28 35 10 -22 -40 -4 -21 27 29 18 28 34
62 36 76 5 27 50 86 60 77 3 -3 1 -14 -5 -24 -17 -33 -2 -20 19 16 12 19 38
43 59 54 21 11 49 26 63 33 14 7 27 16 30 19 3 4 22 11 42 17 32 9 36 8 32 -6
-3 -10 4 -1 15 18 16 27 20 31 21 15 1 -19 2 -19 10 1 4 12 16 24 24 27 14 5
15 3 6 -13 -9 -17 -8 -19 7 -13 10 4 30 15 45 26 14 11 43 21 62 22 36 2 36 2
19 -19 -10 -11 2 -4 27 14 63 49 85 60 109 55 12 -2 21 2 22 8 1 7 5 1 9 -13
8 -24 8 -24 9 -2 1 24 16 30 25 10 3 -9 8 -8 16 5 11 17 13 17 30 2 10 -9 28
-14 41 -11z m1599 -19 c0 -7 3 -20 6 -29 3 -9 1 -16 -5 -16 -6 0 -11 9 -11 21
0 16 -4 19 -20 14 -12 -4 -20 -2 -20 5 0 6 5 8 10 5 6 -3 10 1 10 9 0 10 6 13
15 10 8 -4 15 -12 15 -19z m-359 -17 c-10 -27 -33 -37 -26 -11 3 10 -2 3 -10
-16 -22 -45 -15 -57 18 -31 41 32 42 19 2 -19 -25 -23 -35 -28 -35 -17 0 9 -4
16 -9 16 -5 0 -3 19 4 42 9 31 19 44 36 49 13 4 25 7 26 8 1 1 -1 -9 -6 -21z
m-461 -13 c0 -8 -5 -17 -11 -21 -16 -10 -29 17 -16 31 14 15 27 10 27 -10z
m1025 16 c-6 -5 -23 -12 -40 -15 -28 -6 -28 -5 5 8 43 18 46 18 35 7z m34 -47
c-30 -32 -41 -30 -28 3 17 45 31 57 42 38 6 -12 3 -23 -14 -41z m201 52 c0 -3
-4 -8 -10 -11 -5 -3 -10 -1 -10 4 0 6 5 11 10 11 6 0 10 -2 10 -4z m-124 -21
c14 -13 14 -15 0 -15 -9 0 -16 -4 -16 -9 0 -5 -8 -11 -17 -15 -10 -3 -24 -9
-32 -12 -8 -4 -1 10 15 30 33 42 31 41 50 21z m41 9 c-3 -3 -12 -4 -19 -1 -8
3 -5 6 6 6 11 1 17 -2 13 -5z m53 -14 c0 -5 -7 -10 -15 -10 -9 0 -15 -7 -13
-16 2 -10 -3 -19 -9 -21 -10 -4 -10 3 -2 26 10 29 39 44 39 21z m36 -26 c-3
-19 -10 -42 -17 -51 -7 -8 -12 -28 -11 -43 4 -54 -29 -44 -43 12 -5 21 -3 29
9 34 9 3 16 12 16 20 0 7 8 18 18 23 9 6 13 11 8 11 -8 0 12 30 20 30 2 0 2
-16 0 -36z m55 14 c9 -17 9 -23 0 -26 -6 -2 -17 -10 -25 -17 -20 -20 -25 -8
-13 31 12 40 22 43 38 12z m-1384 -20 c-3 -7 -5 -2 -5 12 0 14 2 19 5 13 2 -7
2 -19 0 -25z m1083 21 c0 -27 -20 -46 -44 -42 -24 5 -46 33 -26 33 6 0 10 -6
10 -12 0 -7 7 -2 16 10 16 23 44 30 44 11z m126 -44 c-3 -8 0 -15 6 -15 7 0 6
-5 -2 -15 -10 -12 -10 -18 -1 -29 8 -10 9 -16 1 -21 -6 -3 -8 -11 -4 -16 4 -6
14 -3 25 7 17 15 19 15 19 1 0 -8 6 -18 13 -20 18 -8 -14 -28 -36 -23 -14 3
-16 0 -12 -15 9 -26 -11 -48 -35 -42 -26 7 -25 24 1 57 16 20 18 30 10 40 -8
10 -8 21 -1 41 8 20 7 26 -2 23 -7 -3 -17 -18 -22 -34 -5 -16 -11 -36 -14 -44
-3 -10 -9 -5 -18 17 -14 33 -34 52 -34 33 0 -6 -5 -8 -10 -5 -6 4 -7 12 -3 18
4 7 8 16 8 21 0 5 7 11 15 13 13 4 13 3 0 -6 -25 -18 3 -11 35 9 38 23 69 26
61 5z m-343 -22 c-7 -3 -10 -10 -7 -18 6 -14 -32 -32 -43 -21 -4 3 2 6 11 6
10 0 16 6 14 12 -6 16 14 38 27 30 5 -3 4 -7 -2 -9z m192 -3 c10 -11 13 -20 7
-20 -6 0 -16 9 -22 20 -6 11 -9 20 -7 20 2 0 12 -9 22 -20z m312 -14 c-8 -8
-17 -12 -21 -9 -3 4 2 14 12 23 21 21 30 6 9 -14z m-340 -18 c-3 -7 -5 -2 -5
12 0 14 2 19 5 13 2 -7 2 -19 0 -25z m-692 -8 c3 -5 1 -10 -4 -10 -6 0 -11 5
-11 10 0 6 2 10 4 10 3 0 8 -4 11 -10z m675 -10 c0 -21 -15 -27 -25 -10 -7 12
2 30 16 30 5 0 9 -9 9 -20z m335 10 c3 -5 2 -10 -4 -10 -5 0 -13 5 -16 10 -3
6 -2 10 4 10 5 0 13 -4 16 -10z m-501 -39 c-10 -11 -21 -18 -26 -15 -4 3 -8
-1 -8 -9 0 -18 -22 -28 -40 -17 -9 6 1 17 36 38 53 34 65 35 38 3z m-900 3 c3
-8 2 -12 -4 -9 -6 3 -10 10 -10 16 0 14 7 11 14 -7z m803 1 c0 -8 -4 -15 -9
-15 -10 0 -11 14 -1 23 9 10 10 9 10 -8z m53 11 c0 -3 -4 -8 -10 -11 -5 -3
-10 -1 -10 4 0 6 5 11 10 11 6 0 10 -2 10 -4z m105 -6 c-3 -5 -13 -10 -21 -10
-8 0 -12 5 -9 10 3 6 13 10 21 10 8 0 12 -4 9 -10z m445 0 c0 -5 -5 -10 -11
-10 -5 0 -7 5 -4 10 3 6 8 10 11 10 2 0 4 -4 4 -10z m-260 -15 c6 -8 10 -22 8
-32 -3 -15 -6 -15 -25 6 -12 13 -20 28 -17 33 8 12 20 10 34 -7z m40 5 c0 -5
-2 -10 -4 -10 -3 0 -8 5 -11 10 -3 6 -1 10 4 10 6 0 11 -4 11 -10z m260 -7 c0
-10 -4 -14 -8 -8 -4 6 -11 13 -16 18 -5 4 -2 7 7 7 10 0 17 -8 17 -17z m-1169
-16 c-10 -9 -11 -8 -5 6 3 10 9 15 12 12 3 -3 0 -11 -7 -18z m291 -9 c-6 -6
-15 -8 -19 -4 -4 4 -1 11 7 16 19 12 27 3 12 -12z m839 12 c14 0 11 -17 -4
-23 -7 -3 -19 4 -26 15 -11 18 -11 20 4 14 9 -3 21 -6 26 -6z m-661 -11 c0 -8
6 -7 16 2 14 12 16 11 12 -6 -2 -11 -10 -19 -17 -17 -8 2 -11 -3 -8 -12 4 -9
-1 -17 -14 -21 -10 -4 -17 -11 -14 -16 3 -5 0 -6 -8 -3 -8 3 -17 -2 -21 -11
-8 -21 -26 -10 -26 17 0 16 5 19 21 15 33 -9 46 1 44 33 -1 17 2 30 7 30 4 0
8 -5 8 -11z m230 -8 c0 -18 -4 -19 -39 -12 -7 2 22 31 30 31 5 0 9 -9 9 -19z
m-65 -1 c-4 -6 8 -15 25 -21 17 -6 29 -13 26 -16 -6 -6 -76 19 -76 27 0 9 12
20 22 20 5 0 6 -5 3 -10z m-195 -20 c0 -13 -5 -18 -15 -14 -8 4 -15 12 -15 20
0 8 7 14 15 14 8 0 15 -9 15 -20z m639 4 c14 9 14 7 0 -34 -9 -23 -9 -34 -1
-39 12 -7 5 -51 -8 -51 -5 0 -6 10 -3 23 l6 22 -20 -20 c-11 -11 -19 -23 -17
-27 9 -16 -12 -14 -29 2 -17 17 -17 19 10 40 21 17 23 21 8 16 -11 -3 -27 -1
-35 4 -15 9 -13 11 13 14 6 0 12 8 12 16 0 20 38 51 46 38 4 -6 12 -7 18 -4z
m-689 -14 c0 -5 -4 -10 -10 -10 -5 0 -6 -8 -3 -17 5 -12 2 -15 -10 -10 -9 3
-23 -1 -32 -9 -13 -14 -15 -14 -16 3 0 11 -3 13 -6 5 -6 -16 16 -44 29 -36 5
3 4 -3 -3 -14 -7 -11 -22 -22 -34 -24 -18 -4 -21 -1 -18 21 4 23 3 24 -7 8 -6
-10 -16 -14 -23 -10 -7 4 -4 -5 5 -19 13 -19 14 -28 5 -31 -20 -6 -33 15 -29
46 4 22 1 28 -8 22 -9 -6 -9 -3 -1 14 7 11 19 21 28 21 13 0 14 -2 2 -17 -13
-16 -12 -17 4 -4 9 7 17 19 17 26 0 14 63 44 93 44 9 1 17 -3 17 -9z m218 -23
c14 -28 39 -37 39 -13 0 8 -6 12 -14 9 -7 -3 -13 0 -13 6 0 14 37 15 45 1 8
-12 -26 -59 -42 -60 -7 0 -13 7 -13 15 0 8 -5 15 -11 15 -5 0 -7 5 -4 10 3 6
2 10 -4 10 -5 0 -13 -9 -16 -20 -6 -19 -35 -29 -35 -12 1 12 24 38 40 45 8 4
2 5 -14 1 -26 -5 -28 -3 -16 11 18 22 42 15 58 -18z m202 18 c-11 -13 -10 -14
3 -10 8 4 18 2 22 -4 4 -7 -4 -11 -19 -11 -28 0 -33 9 -14 28 17 17 23 15 8
-3z m349 -19 c-5 -6 -9 -18 -9 -27 0 -9 -7 -20 -16 -23 -22 -9 -30 0 -15 18
10 11 9 15 -6 18 -15 3 -15 6 6 25 18 17 26 19 36 10 8 -7 10 -16 4 -21z
m-417 -2 c-3 -19 -1 -25 7 -20 6 4 9 12 6 17 -3 5 1 6 9 3 20 -8 20 -20 0 -28
-40 -15 -54 4 -31 42 12 19 15 15 9 -14z m-852 -35 c0 -5 -7 -9 -15 -9 -9 0
-12 6 -9 15 6 15 24 11 24 -6z m964 -5 c4 -9 4 -19 2 -21 -8 -8 -26 8 -26 23
0 19 16 18 24 -2z m-2614 2 c0 -2 -8 -10 -17 -17 -16 -13 -17 -12 -4 4 13 16
21 21 21 13z m1910 -6 c0 -5 -6 -10 -12 -10 -10 0 -9 -3 1 -9 11 -7 9 -10 -7
-15 -12 -4 -20 -12 -18 -19 1 -7 1 -9 -1 -4 -3 4 -11 7 -19 7 -19 0 -18 17 4
29 13 8 14 11 2 11 -10 1 -9 4 5 10 28 12 45 12 45 0z m430 -29 c-12 -23 -30
-28 -30 -9 0 14 34 48 38 37 2 -4 -2 -17 -8 -28z m200 29 c0 -5 -5 -10 -11
-10 -6 0 -17 -7 -25 -15 -20 -20 -36 -19 -32 2 2 9 14 20 28 24 36 10 40 10
40 -1z m-342 -17 c-9 -10 -18 -25 -21 -33 -4 -11 -6 -9 -6 6 -1 21 16 44 33
44 5 0 2 -8 -6 -17z m392 -4 c0 -16 -31 -38 -53 -39 -16 0 -16 2 -1 25 16 25
54 35 54 14z m303 -13 c-10 -13 -20 -20 -21 -15 -5 12 17 39 30 39 5 0 1 -11
-9 -24z m-1201 -5 c-8 -4 -13 -11 -13 -15 3 -24 0 -27 -15 -15 -14 12 -14 14
2 26 10 7 23 13 28 13 6 0 5 -4 -2 -9z m1035 -11 c-4 -15 0 -20 16 -20 18 0
19 -2 7 -10 -31 -20 -47 -3 -34 38 6 20 17 13 11 -8z m-912 0 c3 -5 2 -10 -4
-10 -5 0 -13 5 -16 10 -3 6 -2 10 4 10 5 0 13 -4 16 -10z m-16 -30 c7 -11 20
-20 27 -20 8 0 14 -5 14 -11 0 -6 -7 -9 -15 -5 -8 3 -19 -2 -23 -11 -7 -11
-15 -14 -28 -8 -18 7 -18 8 -1 12 9 3 17 8 17 13 0 4 -8 6 -18 3 -11 -3 -19 1
-19 9 0 7 -4 21 -8 30 -10 25 36 15 54 -12z m336 20 c3 -5 1 -10 -4 -10 -6 0
-11 5 -11 10 0 6 2 10 4 10 3 0 8 -4 11 -10z m710 0 c-3 -5 -11 -10 -16 -10
-6 0 -7 5 -4 10 3 6 11 10 16 10 6 0 7 -4 4 -10z m-735 -15 c0 -15 -47 -64
-62 -65 -5 0 -8 8 -8 18 -1 12 -5 9 -16 -10 -8 -16 -22 -28 -31 -28 -14 0 -14
2 -1 23 8 12 25 26 36 32 12 5 22 15 22 22 0 11 18 19 48 22 6 0 12 -6 12 -14z
m588 3 c-6 -18 -28 -21 -28 -4 0 9 7 16 16 16 9 0 14 -5 12 -12z m-973 -17
c-3 -6 -11 -11 -17 -11 -6 0 -6 6 2 15 14 17 26 13 15 -4z m202 -25 c-34 -32
-35 -43 -1 -21 14 9 28 14 32 11 3 -3 0 -6 -7 -6 -7 0 -11 -6 -8 -13 8 -20 -9
-41 -27 -34 -28 11 -31 54 -5 81 15 15 28 21 33 16 6 -6 -1 -19 -17 -34z m353
40 c0 -3 -4 -8 -10 -11 -5 -3 -10 -1 -10 4 0 6 5 11 10 11 6 0 10 -2 10 -4z
m50 -17 c0 -11 -34 -29 -54 -29 -13 0 -12 5 5 24 20 23 49 26 49 5z m226 -15
c-19 -19 -47 -18 -40 0 6 15 33 26 47 19 4 -3 1 -11 -7 -19z m288 -6 c-1 -13
-3 -27 -3 -31 -1 -5 -6 -5 -12 -1 -8 4 -7 9 2 15 11 7 10 9 -3 9 -21 0 -23 11
-6 28 16 16 25 7 22 -20z m-863 -11 c-10 -9 -11 -8 -5 6 3 10 9 15 12 12 3 -3
0 -11 -7 -18z m140 -11 c-6 -7 -9 -20 -5 -29 8 -21 -15 -32 -32 -16 -11 12 -9
19 14 47 15 18 28 28 30 22 2 -6 -1 -17 -7 -24z m509 24 c0 -5 -4 -10 -10 -10
-5 0 -10 -9 -10 -20 0 -16 -7 -20 -35 -20 -19 0 -35 5 -35 10 0 6 11 10 25 10
18 0 25 5 25 20 0 13 7 20 20 20 11 0 20 -4 20 -10z m-466 -9 c3 -5 -1 -14 -8
-20 -12 -10 -13 -8 -9 8 6 23 9 25 17 12z m76 -17 c0 -8 -21 -24 -46 -34 -52
-23 -64 -24 -64 -10 0 6 11 10 25 10 16 0 25 6 25 16 0 11 5 14 16 10 11 -4
18 1 21 14 6 22 23 17 23 -6z m210 16 c0 -5 -4 -10 -10 -10 -5 0 -10 5 -10 10
0 6 5 10 10 10 6 0 10 -4 10 -10z m260 4 c0 -3 -6 -12 -14 -20 -8 -7 -16 -19
-18 -26 -6 -16 -38 -2 -38 17 0 9 10 20 23 25 26 10 47 12 47 4z m14 -29 c-31
-24 -39 -17 -13 11 13 14 25 20 27 14 2 -6 -4 -18 -14 -25z m-1036 19 c24 -7
30 -29 9 -37 -17 -6 -32 3 -40 26 -7 19 -3 20 31 11z m392 -14 c0 -5 -5 -10
-11 -10 -5 0 -7 5 -4 10 3 6 8 10 11 10 2 0 4 -4 4 -10z m234 -4 c-10 -8 -21
-12 -24 -10 -5 6 21 24 34 24 6 0 1 -6 -10 -14z m180 -19 c-7 -18 -49 -23 -59
-8 -7 12 47 40 58 31 4 -4 5 -14 1 -23z m294 16 c-8 -10 -6 -13 6 -13 13 0 14
-4 4 -25 -6 -14 -14 -22 -17 -18 -11 15 -29 12 -27 -5 1 -13 -10 -18 -49 -23
-47 -6 -27 -13 24 -9 17 1 21 -2 15 -12 -6 -10 -4 -10 9 1 15 12 17 10 17 -16
0 -34 -36 -87 -55 -80 -6 3 -18 1 -26 -5 -11 -8 -10 -9 4 -4 9 3 17 0 17 -6 0
-11 -83 -98 -94 -98 -4 0 -11 10 -15 23 -8 20 -9 19 -9 -8 1 -38 -26 -91 -52
-105 -16 -8 -20 -8 -20 4 0 8 -4 17 -9 20 -4 3 -7 -6 -5 -21 1 -14 -5 -33 -14
-42 -15 -15 -15 -15 -9 2 3 9 2 17 -3 17 -6 0 -10 14 -10 30 0 20 5 30 15 30
8 0 15 5 15 10 0 6 -4 10 -10 10 -14 0 -13 33 2 48 6 6 8 15 4 19 -4 4 -12 0
-17 -10 -6 -9 -14 -15 -18 -13 -5 3 -6 -7 -4 -22 4 -25 3 -26 -10 -9 -11 14
-15 43 -14 117 2 87 4 99 18 95 9 -3 28 -1 42 4 20 8 28 6 39 -6 10 -13 10
-17 0 -20 -6 -3 -10 -8 -7 -13 2 -4 -1 -31 -9 -59 -13 -51 -13 -51 5 -32 11
11 19 24 19 29 0 5 8 16 17 23 15 13 16 12 11 -8 -4 -13 -2 -23 2 -23 5 0 10
-6 13 -12 2 -7 2 0 0 15 -8 49 18 94 50 88 5 -1 6 7 3 17 -9 27 47 86 74 79
11 -3 18 -1 15 4 -9 13 32 48 54 46 15 -1 17 -4 9 -14z m-954 -9 c9 -22 8 -24
-9 -24 -8 0 -15 -5 -15 -12 0 -6 -9 -3 -20 7 -23 21 -26 37 -6 29 8 -3 17 -1
21 5 9 16 22 13 29 -5z m221 -14 c-4 -7 -18 -7 -43 -1 -2 1 -1 5 2 10 3 5 15
7 26 4 11 -3 18 -9 15 -13z m350 0 c-3 -5 -10 -10 -16 -10 -5 0 -9 5 -9 10 0
6 7 10 16 10 8 0 12 -4 9 -10z m-685 -10 c0 -5 -5 -10 -11 -10 -5 0 -7 5 -4
10 3 6 8 10 11 10 2 0 4 -4 4 -10z m170 0 c0 -5 -4 -10 -10 -10 -5 0 -10 5
-10 10 0 6 5 10 10 10 6 0 10 -4 10 -10z m662 -28 c-3 -8 1 -18 8 -22 8 -5 4
-8 -13 -7 -15 1 -27 5 -27 9 0 4 -12 8 -27 10 l-28 4 27 11 c14 7 29 16 33 22
9 15 34 -10 27 -27z m31 31 c-7 -2 -19 -2 -25 0 -7 3 -2 5 12 5 14 0 19 -2 13
-5z m-553 -23 c13 -11 20 -20 17 -20 -15 0 -23 -2 -39 -11 -13 -7 -18 -4 -23
11 -7 21 0 40 14 40 4 0 18 -9 31 -20z m380 -3 c0 -12 -4 -16 -12 -11 -8 5 -7
0 2 -11 14 -17 13 -18 -12 -11 -16 3 -28 2 -28 -3 0 -13 -108 -64 -145 -69
-28 -3 -60 -21 -52 -28 1 -2 25 3 52 11 62 19 65 19 65 -5 0 -11 5 -20 12 -20
6 0 9 -3 5 -6 -8 -8 16 -32 28 -28 5 2 16 0 23 -4 10 -7 10 -20 1 -60 -10 -48
-29 -72 -29 -37 0 9 -6 12 -17 8 -11 -4 -12 -8 -5 -11 14 -4 16 -32 2 -32 -5
0 -7 -7 -4 -15 4 -9 0 -15 -7 -15 -9 0 -10 -3 -4 -8 14 -10 18 -39 6 -46 -5
-3 -7 -15 -4 -25 7 -28 -12 -34 -38 -12 -21 18 -23 22 -11 41 8 12 9 19 3 16
-5 -4 -14 2 -20 11 -10 17 -10 17 -11 -1 0 -10 -5 -16 -12 -13 -7 2 -24 0 -37
-4 -18 -7 -21 -12 -12 -23 6 -7 8 -16 4 -19 -11 -12 -23 -8 -23 8 0 18 -16 20
-24 3 -5 -10 -7 -10 -12 -1 -3 7 -12 9 -21 6 -10 -4 -14 -2 -10 4 4 6 4 13 0
15 -17 7 -83 115 -83 134 0 12 10 29 23 37 l22 16 -22 -6 c-13 -3 -23 -1 -23
4 0 10 31 28 68 38 13 4 22 2 22 -4 0 -6 -6 -11 -14 -11 -8 0 -17 -3 -19 -7
-3 -5 14 -9 36 -9 23 -1 34 0 25 3 -40 10 -11 32 45 34 26 1 28 3 8 6 -19 4
-21 7 -10 15 10 7 9 8 -6 3 -36 -13 -95 -22 -95 -15 0 11 48 30 78 31 27 1 27
1 3 8 -24 6 -22 8 27 45 29 21 57 34 63 30 7 -4 9 -3 6 3 -10 16 19 35 43 28
13 -4 20 -15 20 -33 0 -19 3 -23 9 -13 5 7 6 21 4 31 -4 14 3 20 26 25 17 4
31 11 31 15 0 5 13 8 30 7 21 -1 30 -7 30 -20z m-438 -7 c9 -19 10 -45 2 -37
-4 3 -14 -1 -22 -10 -11 -11 -17 -12 -20 -4 -3 9 -9 8 -21 -3 -11 -10 -21 -12
-31 -6 -12 8 -11 12 8 30 12 12 26 19 31 16 5 -3 11 3 14 14 6 23 28 23 39 0z
m488 -1 c0 -5 -4 -9 -10 -9 -5 0 -10 7 -10 16 0 8 5 12 10 9 6 -3 10 -10 10
-16z m168 6 c-4 -11 -28 -16 -28 -6 0 12 13 22 23 18 5 -1 7 -7 5 -12z m-738
-5 c0 -5 -4 -10 -10 -10 -5 0 -10 5 -10 10 0 6 5 10 10 10 6 0 10 -4 10 -10z
m690 0 c0 -5 -4 -10 -10 -10 -5 0 -10 5 -10 10 0 6 5 10 10 10 6 0 10 -4 10
-10z m-740 -10 c0 -5 -4 -10 -10 -10 -5 0 -10 5 -10 10 0 6 5 10 10 10 6 0 10
-4 10 -10z m-125 -9 c-3 -5 5 -13 17 -17 31 -9 49 -24 42 -35 -3 -5 -13 -5
-24 1 -15 8 -18 7 -15 -2 7 -18 59 -41 63 -28 2 5 8 10 12 10 9 0 -18 -59 -31
-70 -4 -3 -9 -15 -13 -27 -4 -13 -11 -23 -16 -23 -5 0 -7 -7 -4 -15 4 -9 -2
-18 -17 -24 -13 -5 -18 -10 -10 -10 16 -1 6 -52 -12 -63 -7 -4 -12 -13 -13
-20 -3 -32 -5 -38 -14 -38 -5 0 -7 7 -4 15 4 8 1 21 -5 29 -17 20 -3 99 16 92
8 -3 12 -2 8 3 -3 5 1 12 7 14 8 3 6 6 -5 6 -13 1 -18 9 -17 34 0 17 -3 53 -6
78 -4 34 -2 50 10 62 19 18 21 31 4 21 -7 -4 -8 -3 -4 4 4 7 14 12 22 12 8 0
13 -4 9 -9z m62 -7 c-3 -3 -12 -4 -19 -1 -8 3 -5 6 6 6 11 1 17 -2 13 -5z
m718 -4 c-3 -5 -12 -7 -20 -3 -21 7 -19 13 6 13 11 0 18 -4 14 -10z m415 -6
c0 -8 -4 -14 -9 -14 -5 0 -7 -9 -4 -20 4 -14 0 -20 -10 -20 -9 0 -18 8 -20 18
-4 13 -5 11 -6 -5 -1 -18 -7 -23 -26 -23 -30 0 -34 27 -7 56 21 22 82 28 82 8z
m-828 -11 c-43 -37 -75 -58 -96 -63 -11 -3 -21 -11 -21 -17 0 -6 -4 -15 -9
-20 -6 -5 -6 -2 -1 6 6 11 4 13 -8 8 -25 -9 -21 -3 22 42 24 25 51 43 72 46
18 3 35 8 38 11 2 2 9 4 14 4 6 0 1 -8 -11 -17z m299 -48 c-13 -46 -20 -55
-39 -55 -23 0 -52 21 -52 37 0 14 73 73 91 73 15 0 15 -4 0 -55z m209 33 c-11
-12 -20 -27 -20 -32 0 -6 -5 -3 -11 7 -13 22 4 47 33 47 18 0 18 -1 -2 -22z
m-1096 -59 c-8 -16 -9 -12 -10 23 -1 37 0 40 9 21 6 -15 7 -31 1 -44z m907 8
c-13 -13 -15 1 -4 30 7 17 8 17 11 -1 2 -10 -1 -23 -7 -29z m-321 18 c-7 -8
-20 -15 -29 -15 -13 1 -13 3 3 15 26 19 42 19 26 0z m-173 -1 c-3 -3 -12 -4
-19 -1 -8 3 -5 6 6 6 11 1 17 -2 13 -5z m-22 -31 c17 -23 2 -71 -30 -101 -14
-13 -22 -29 -19 -35 4 -7 4 -9 -1 -5 -4 4 -13 4 -19 -1 -7 -6 -18 -4 -29 4
-15 11 -16 17 -7 34 6 12 16 21 22 21 7 0 6 5 -2 15 -9 10 -9 15 -1 15 6 0 11
9 11 21 0 11 4 18 9 15 4 -3 16 3 26 14 22 24 25 24 40 3z m665 8 c0 -6 -4
-13 -10 -16 -5 -3 -10 1 -10 9 0 9 5 16 10 16 6 0 10 -4 10 -9z m308 -8 c-4
-22 -54 -76 -66 -72 -7 3 -3 21 9 47 14 29 26 42 40 42 13 0 19 -6 17 -17z
m-853 -18 c-39 -32 -58 -32 -22 0 15 14 33 25 40 25 7 0 -1 -11 -18 -25z m405
-32 c0 -7 -7 -13 -15 -13 -15 0 -21 31 -8 43 8 8 23 -12 23 -30z m355 18 c3
-5 -4 -16 -16 -25 -12 -8 -19 -19 -15 -24 3 -5 -2 -24 -10 -42 -11 -21 -19
-28 -24 -20 -5 8 -9 7 -13 -4 -8 -20 -43 -21 -51 -1 -4 11 0 15 12 13 9 -2 16
2 15 9 -1 6 12 24 30 40 19 16 36 37 40 46 7 19 23 22 32 8z m-347 -105 c26
-77 28 -147 5 -186 -15 -26 -18 -27 -39 -14 -12 8 -25 26 -28 40 -4 13 -11 24
-16 24 -6 0 -4 -13 5 -30 9 -17 11 -30 5 -30 -5 0 -10 7 -10 15 0 8 -4 15 -10
15 -5 0 -10 -5 -10 -11 0 -5 -5 -7 -11 -3 -6 3 -7 9 -3 13 5 3 10 22 11 41 1
19 6 36 12 38 6 2 11 7 11 12 0 5 5 21 11 37 7 15 13 39 14 53 1 14 4 27 5 30
1 3 2 8 1 13 0 4 5 7 12 7 6 0 22 -29 35 -64z m-459 -5 c19 -34 22 -98 6 -105
-8 -3 -15 -2 -15 2 0 4 -18 16 -40 26 -42 20 -51 40 -24 50 8 3 12 10 9 16 -3
5 1 10 9 10 9 0 16 5 16 10 0 17 29 11 39 -9z m-177 -27 c-2 -10 -10 -26 -19
-36 -10 -11 -11 -18 -3 -23 14 -9 -26 -65 -47 -65 -11 0 -9 5 8 18 14 12 23
32 25 53 1 19 5 43 7 54 3 11 6 22 6 23 1 2 7 2 14 -1 6 -2 10 -13 9 -23z m24
-29 c-21 -16 -32 -13 -21 4 3 6 14 11 23 11 15 -1 15 -2 -2 -15z m827 -12 c-7
-3 -13 -12 -13 -20 0 -9 -2 -14 -5 -11 -4 3 -3 18 1 33 5 20 9 24 18 14 8 -8
8 -13 -1 -16z m-778 -2 c-3 -6 11 -13 31 -17 29 -5 35 -10 31 -26 -5 -16 -3
-17 9 -7 18 15 30 4 38 -37 7 -30 5 -32 -27 -36 -35 -4 -56 9 -50 28 7 22 -37
22 -64 1 -15 -12 -24 -16 -19 -9 4 7 1 12 -8 12 -20 0 -20 10 -2 35 8 11 12
24 10 30 -4 9 15 21 54 34 2 1 1 -3 -3 -8z m945 -22 c0 -5 -4 -9 -10 -9 -5 0
-10 7 -10 16 0 8 5 12 10 9 6 -3 10 -10 10 -16z m-771 -20 c14 -41 14 -39 -8
-39 -20 0 -38 42 -21 48 6 2 8 8 4 13 -3 5 -1 9 4 9 6 0 15 -14 21 -31z m821
21 c0 -5 -4 -10 -10 -10 -5 0 -10 5 -10 10 0 6 5 10 10 10 6 0 10 -4 10 -10z
m-250 -10 c0 -5 -7 -10 -16 -10 -14 0 -14 -3 -4 -15 10 -12 10 -15 -3 -15 -25
0 -31 20 -11 35 23 17 34 19 34 5z m-378 -49 c20 -18 25 -27 16 -32 -7 -4 -15
-3 -19 2 -3 6 -17 9 -30 7 -19 -2 -23 1 -22 20 0 12 1 24 2 27 2 10 26 -1 53
-24z m278 10 c0 -12 -20 -25 -27 -18 -7 7 6 27 18 27 5 0 9 -4 9 -9z m164 -18
c-4 -15 -7 -33 -7 -40 0 -16 -9 -17 -25 -1 -9 9 -7 14 6 24 10 8 12 13 5 14
-19 0 -16 18 5 23 9 3 18 5 20 6 1 0 -1 -11 -4 -26z m-1087 -5 c-3 -8 -6 -5
-6 6 -1 11 2 17 5 13 3 -3 4 -12 1 -19z m948 -28 c3 -5 1 -10 -4 -10 -6 0 -11
5 -11 10 0 6 2 10 4 10 3 0 8 -4 11 -10z m-4761 -21 c-3 -5 -10 -7 -15 -3 -5
3 -7 10 -3 15 3 5 10 7 15 3 5 -3 7 -10 3 -15z m3947 0 c-2 -8 -4 -19 -4 -24
0 -6 -7 -17 -16 -25 -13 -12 -14 -12 -9 2 4 8 1 21 -5 27 -8 8 -8 11 1 11 7 0
12 7 12 16 0 9 6 14 13 11 6 -2 10 -11 8 -18z m-3771 -4 c0 -9 -9 -15 -25 -15
-24 0 -32 10 -18 23 12 13 43 7 43 -8z m4406 -41 c-3 -8 3 -10 17 -7 17 3 19
2 7 -5 -19 -12 -71 -10 -68 3 2 5 8 9 14 7 6 -1 11 5 11 13 0 11 -7 14 -21 10
-19 -5 -19 -5 -3 5 9 6 15 17 11 23 -3 7 4 1 16 -12 11 -13 19 -30 16 -37z
m44 36 c0 -5 -2 -10 -4 -10 -3 0 -8 5 -11 10 -3 6 -1 10 4 10 6 0 11 -4 11
-10z m-4478 -32 c11 -9 13 -19 8 -33 -8 -19 -9 -19 -16 4 -7 23 -8 24 -15 5
-6 -16 -8 -15 -8 9 -1 30 7 34 31 15z m4198 -9 c0 -5 -4 -9 -10 -9 -5 0 -10 7
-10 16 0 8 5 12 10 9 6 -3 10 -10 10 -16z m-4140 -3 c0 -3 -4 -8 -10 -11 -5
-3 -10 -1 -10 4 0 6 5 11 10 11 6 0 10 -2 10 -4z m4735 -16 c-3 -5 -12 -10
-18 -10 -7 0 -6 4 3 10 19 12 23 12 15 0z m-571 -32 c-3 -4 -12 -8 -20 -8 -12
0 -12 4 -2 20 8 13 15 16 19 8 4 -7 5 -16 3 -20z m256 12 c0 -11 -6 -20 -13
-20 -7 0 -13 9 -14 20 -1 11 4 20 13 20 8 0 14 -9 14 -20z m-130 -14 c0 -2 -7
-6 -15 -10 -8 -3 -15 -1 -15 4 0 6 7 10 15 10 8 0 15 -2 15 -4z m-4376 -21
c-4 -8 -8 -15 -10 -15 -2 0 -4 7 -4 15 0 8 4 15 10 15 5 0 7 -7 4 -15z m3821
5 c-3 -5 -1 -10 4 -10 6 0 11 -9 11 -20 0 -24 -35 -28 -44 -4 -10 25 -7 32 12
37 9 3 18 5 20 6 2 0 0 -3 -3 -9z m475 0 c0 -5 -2 -10 -4 -10 -3 0 -8 5 -11
10 -3 6 -1 10 4 10 6 0 11 -4 11 -10z m-3145 -10 c3 -5 1 -10 -4 -10 -6 0 -11
5 -11 10 0 6 2 10 4 10 3 0 8 -4 11 -10z m-1125 -25 c-9 -11 -9 -15 -1 -15 7
0 9 -5 6 -10 -4 -6 -11 -8 -16 -5 -13 9 -11 43 4 48 18 6 21 -1 7 -18z m4133
-6 c-5 -20 -28 -15 -37 7 -4 10 2 13 18 12 16 -2 22 -7 19 -19z m137 -1 c0 -4
-4 -8 -10 -8 -5 0 -10 -8 -10 -17 0 -15 -2 -16 -10 -3 -16 24 -12 39 10 37 11
-1 20 -5 20 -9z m28 -25 c-2 -9 -9 -18 -16 -19 -7 -1 -8 0 -3 2 6 3 7 12 4 20
-3 8 0 14 7 14 6 0 10 -8 8 -17z m76 5 c-2 -3 4 -9 13 -12 10 -2 0 -4 -21 -2
-22 1 -41 7 -44 14 -2 7 7 11 26 9 17 -1 28 -5 26 -9z m-4967 -72 c-13 -13
-47 -18 -47 -6 0 10 43 29 53 23 4 -2 1 -10 -6 -17z m4943 14 c8 -5 11 -10 5
-10 -5 0 -17 5 -25 10 -8 5 -10 10 -5 10 6 0 17 -5 25 -10z m-4939 -47 c-12
-20 -14 -14 -5 12 4 9 9 14 11 11 3 -2 0 -13 -6 -23z m2233 13 c61 -16 48 -27
-40 -34 -61 -4 -94 5 -94 28 0 21 68 24 134 6z m-2459 -6 c-3 -5 -12 -10 -18
-10 -7 0 -6 4 3 10 19 12 23 12 15 0z m275 0 c0 -5 -2 -10 -4 -10 -3 0 -8 5
-11 10 -3 6 -1 10 4 10 6 0 11 -4 11 -10z m650 -2 c0 -6 3 -8 6 -5 11 11 44
-40 44 -67 0 -14 -3 -26 -8 -26 -15 0 -42 40 -42 63 -1 22 -1 22 -16 2 -9 -12
-11 -21 -4 -23 24 -8 30 -39 11 -61 -22 -25 -39 -26 -68 -3 -19 14 -21 24 -16
60 5 41 7 43 33 37 22 -5 28 -2 33 14 5 22 27 29 27 9z m1384 -3 c-7 -16 -24
-21 -24 -6 0 8 7 13 27 20 1 1 0 -6 -3 -14z m-1899 -36 c14 -26 14 -30 0 -35
-9 -4 -19 -4 -22 0 -4 3 0 6 7 6 8 0 4 8 -9 19 -13 11 -19 25 -15 35 8 20 20
13 39 -25z m345 -17 c0 -30 -22 -24 -31 9 -4 13 -7 19 -8 12 -1 -6 -4 -19 -8
-29 -4 -11 -3 -15 4 -11 18 11 23 -21 7 -38 -10 -10 -14 -24 -10 -40 4 -14 2
-25 -4 -25 -5 0 -10 5 -10 11 0 5 -4 8 -9 5 -5 -3 -11 3 -14 14 -3 13 2 26 16
36 14 10 18 18 10 21 -9 3 -9 12 -2 30 5 13 7 29 4 33 -3 5 3 13 12 19 22 12
43 -11 43 -47z m4365 48 c3 -6 -1 -7 -9 -4 -18 7 -21 14 -7 14 6 0 13 -4 16
-10z m-4337 -27 c0 -21 -2 -23 -10 -9 -5 9 -6 21 -3 26 10 16 13 12 13 -17z
m31 -42 c-7 -23 -16 -41 -20 -41 -12 0 -2 59 12 76 19 23 22 10 8 -35z m-839
30 c0 -6 -4 -13 -10 -16 -5 -3 -10 1 -10 9 0 9 5 16 10 16 6 0 10 -4 10 -9z
m17 -13 c-3 -8 -6 -5 -6 6 -1 11 2 17 5 13 3 -3 4 -12 1 -19z m183 12 c0 -5
-2 -10 -4 -10 -3 0 -8 5 -11 10 -3 6 -1 10 4 10 6 0 11 -4 11 -10z m1180 1 c0
-6 -4 -12 -8 -15 -5 -3 -9 1 -9 9 0 8 4 15 9 15 4 0 8 -4 8 -9z m1175 -1 c3
-6 -1 -7 -9 -4 -18 7 -21 14 -7 14 6 0 13 -4 16 -10z m46 -1 c11 -6 29 -12 40
-15 10 -2 29 -6 41 -9 12 -3 36 -19 53 -37 16 -17 23 -26 14 -20 -9 7 -18 10
-21 7 -3 -3 -11 1 -18 10 -7 8 -19 15 -26 15 -8 0 -14 4 -14 9 0 5 -8 8 -17 7
-21 -4 -83 24 -83 36 0 11 7 10 31 -3z m-1151 -19 c0 -5 -4 -10 -10 -10 -5 0
-10 5 -10 10 0 6 5 10 10 10 6 0 10 -4 10 -10z m3147 -24 c-3 -7 1 -26 9 -41
16 -32 11 -44 -11 -25 -8 7 -15 9 -15 6 0 -4 -8 -2 -18 3 -13 7 -23 6 -30 -1
-9 -9 -12 -9 -12 0 0 7 5 12 11 12 6 0 9 7 5 15 -3 8 -2 15 2 16 30 3 47 9 50
18 2 6 6 11 9 11 3 0 3 -6 0 -14z m143 -8 c0 -13 -23 -5 -28 10 -2 7 2 10 12
6 9 -3 16 -11 16 -16z m-4290 1 c12 -8 10 -9 -7 -4 -23 6 -33 -10 -11 -17 7
-3 3 -7 -9 -10 -17 -4 -20 -2 -16 10 4 10 2 13 -5 8 -7 -4 -12 -1 -12 8 0 18
37 21 60 5z m570 -4 c0 -8 -4 -15 -10 -15 -5 0 -7 7 -4 15 4 8 8 15 10 15 2 0
4 -7 4 -15z m3634 -8 c12 -19 3 -32 -19 -24 -17 7 -21 51 -3 45 6 -2 16 -12
22 -21z m-3669 -7 c3 -6 -1 -7 -9 -4 -18 7 -21 14 -7 14 6 0 13 -4 16 -10z
m1545 0 c12 -8 9 -10 -13 -10 -16 0 -26 4 -22 10 8 12 16 12 35 0z m2276 -27
c3 -18 -1 -22 -24 -21 -19 1 -29 6 -29 17 0 36 48 40 53 4z m-3786 -22 c0 -11
-3 -11 -14 -1 -8 6 -12 18 -9 27 5 12 7 12 14 1 5 -7 9 -19 9 -27z m571 -36
c2 -46 9 -80 21 -100 10 -16 18 -38 18 -48 0 -10 6 -20 14 -23 12 -5 31 -47
29 -64 -1 -3 -3 -20 -6 -38 -4 -23 -1 -35 9 -39 23 -9 16 -22 -8 -15 -23 5
-23 5 -5 -16 11 -12 16 -26 11 -33 -4 -8 -3 -10 4 -5 8 4 12 0 12 -11 0 -10 2
-36 5 -58 3 -22 3 -34 -1 -27 -3 6 -15 12 -27 12 -20 0 -20 0 -1 15 18 14 18
14 -3 9 -39 -10 -61 44 -77 186 -5 41 -5 43 6 18 16 -39 35 -42 42 -8 3 20 -4
49 -23 92 -29 64 -43 151 -34 201 8 41 11 30 14 -48z m-274 43 c-3 -8 -6 -5
-6 6 -1 11 2 17 5 13 3 -3 4 -12 1 -19z m-359 -16 c2 -7 -2 -10 -12 -6 -9 3
-16 11 -16 16 0 13 23 5 28 -10z m3900 1 c-2 -10 -7 -18 -12 -18 -5 0 -10 8
-12 18 -1 9 4 17 13 17 8 0 13 -7 11 -17z m-308 -10 c0 -10 -4 -14 -8 -8 -4 6
-11 13 -16 18 -5 4 -2 7 7 7 10 0 17 -8 17 -17z m56 -9 c-3 -7 0 -17 7 -21 8
-5 3 -9 -13 -13 -14 -4 -28 -2 -32 4 -11 15 -10 28 1 22 5 -4 7 3 4 13 -4 16
-1 19 17 14 12 -3 19 -11 16 -19z m-3921 6 c3 -6 -1 -7 -9 -4 -18 7 -21 14 -7
14 6 0 13 -4 16 -10z m415 -5 c0 -8 -2 -15 -4 -15 -2 0 -6 7 -10 15 -3 8 -1
15 4 15 6 0 10 -7 10 -15z m3554 9 c9 -3 16 -12 16 -20 0 -19 -7 -18 -32 6
-22 20 -15 26 16 14z m179 -17 c9 -3 17 -11 17 -17 0 -6 -5 -8 -12 -4 -8 5 -9
1 -5 -12 7 -18 6 -18 -9 1 -8 11 -22 19 -30 17 -12 -3 -13 0 -2 17 7 11 15 17
18 12 3 -4 13 -10 23 -14z m-303 -16 c0 -11 -6 -22 -12 -24 -8 -3 -6 -6 5 -6
20 -1 23 -21 3 -21 -8 0 -18 5 -21 10 -3 6 -16 10 -28 10 l-21 0 22 16 c12 8
20 20 17 25 -4 5 3 9 14 9 14 0 21 -6 21 -19z m361 7 c0 -10 2 -10 6 0 5 13
23 7 23 -9 0 -5 -13 -9 -30 -9 -20 0 -30 5 -30 15 0 18 30 20 31 3z m-3366
-34 c-2 -34 -28 -74 -40 -62 -3 3 1 13 10 22 9 9 15 24 13 33 -2 16 8 43 17
43 2 0 2 -16 0 -36z m34 -6 c0 -27 -2 -29 -8 -13 -5 11 -6 26 -4 33 8 21 13
13 12 -20z m836 22 c3 -5 -1 -10 -9 -10 -9 0 -16 5 -16 10 0 6 4 10 9 10 6 0
13 -4 16 -10z m2165 -11 c0 -5 -4 -9 -10 -9 -5 0 -10 7 -10 16 0 8 5 12 10 9
6 -3 10 -10 10 -16z m105 1 c-21 -8 -35 -4 -35 9 0 5 12 6 27 3 24 -5 25 -6 8
-12z m-3092 -115 l6 -60 -13 50 c-7 28 -11 56 -8 63 7 20 9 12 15 -53z m-82
-12 c-9 -16 -10 -16 -11 -1 0 9 3 25 7 35 7 16 8 17 11 1 2 -10 -1 -25 -7 -35z
m-1089 -195 c-7 -7 -12 -8 -12 -2 0 14 12 26 19 19 2 -3 -1 -11 -7 -17z m913
-208 c3 -5 1 -10 -4 -10 -6 0 -11 5 -11 10 0 6 2 10 4 10 3 0 8 -4 11 -10z
m572 -43 c0 -7 -9 -14 -19 -14 -20 -2 -25 13 -5 20 20 9 24 8 24 -6z m3040
-59 c-3 -8 -6 -5 -6 6 -1 11 2 17 5 13 3 -3 4 -12 1 -19z m-94 -8 c-3 -11 -7
-20 -9 -20 -2 0 -4 9 -4 20 0 11 4 20 9 20 5 0 7 -9 4 -20z m-80 -22 c-9 -15
-23 -8 -23 12 0 17 2 19 14 8 8 -7 12 -16 9 -20z m133 5 c-2 -15 -8 -29 -15
-31 -12 -4 -15 17 -5 42 10 26 23 18 20 -11z m-100 -47 c-3 -14 -6 -27 -5 -28
0 -2 -4 -15 -10 -30 -6 -16 -7 -28 -3 -28 4 0 9 -11 10 -25 2 -25 -29 -52 -47
-40 -5 3 -12 -1 -14 -7 -5 -11 -1 49 3 62 1 3 1 17 0 32 -1 18 5 30 19 38 12
6 21 15 21 21 0 11 23 39 29 33 2 -1 1 -15 -3 -28z m-136 0 c0 -3 -4 -8 -10
-11 -5 -3 -10 -1 -10 4 0 6 5 11 10 11 6 0 10 -2 10 -4z m222 -31 c-2 -14 -8
-25 -13 -25 -5 0 -8 -3 -8 -7 3 -20 -2 -31 -17 -37 -13 -5 -12 0 5 29 12 20
21 43 21 51 0 8 4 14 9 14 4 0 6 -11 3 -25z m-3187 -35 c-26 -11 -75 -12 -75
-2 0 5 21 9 48 10 34 1 42 -2 27 -8z m2883 -71 c-20 -13 -31 -10 -24 7 3 8 2
12 -4 9 -21 -13 -9 25 13 40 21 15 22 15 25 -16 2 -19 -2 -35 -10 -40z m-3081
55 c-3 -3 -12 -4 -19 -1 -8 3 -5 6 6 6 11 1 17 -2 13 -5z m-339 -21 c-10 -2
-18 -11 -18 -19 0 -8 -4 -12 -10 -9 -5 3 -10 1 -10 -5 0 -6 -5 -8 -11 -4 -6 3
-22 0 -36 -7 -19 -10 -26 -10 -32 -1 -5 9 -16 10 -32 5 -13 -4 -40 -8 -59 -8
-19 0 -38 -4 -42 -10 -5 -6 -11 -5 -17 4 -8 12 -15 13 -33 4 -17 -7 -30 -8
-42 -1 -13 7 -20 7 -25 -1 -9 -15 -73 -23 -91 -12 -8 6 -12 13 -8 16 4 4 101
14 217 23 116 9 206 19 199 24 -8 4 4 7 27 7 22 -1 32 -3 23 -6z m102 -2 c0
-12 -20 -25 -27 -18 -7 7 6 27 18 27 5 0 9 -4 9 -9z m70 -1 c0 -6 -11 -8 -27
-4 -40 10 -41 14 -5 14 18 0 32 -5 32 -10z m-120 -10 c0 -5 -7 -10 -16 -10 -8
0 -12 5 -9 10 3 6 10 10 16 10 5 0 9 -4 9 -10z m3420 -32 c0 -13 -23 -5 -28
10 -2 7 2 10 12 6 9 -3 16 -11 16 -16z m-3980 -8 c8 -5 11 -12 7 -16 -3 -4
-13 -1 -21 5 -10 9 -16 9 -21 1 -4 -6 -12 -9 -18 -7 -7 2 -19 1 -28 -4 -18 -9
-59 -1 -59 12 0 4 26 10 58 12 31 2 59 4 62 5 3 1 12 -2 20 -8z m-153 -24 c-4
-11 -16 -15 -37 -12 -16 2 -30 -1 -30 -5 0 -5 -8 -9 -17 -9 -16 0 -16 2 -3 11
13 9 13 10 0 7 -8 -3 -17 -14 -20 -26 -4 -18 -7 -19 -24 -6 -18 12 -15 19 7
15 4 0 7 4 7 9 0 12 3 13 -45 -5 -53 -19 -66 -19 -58 1 5 14 2 14 -28 -2 -45
-24 -71 -27 -82 -12 -6 9 -7 5 -3 -11 3 -16 2 -21 -5 -14 -6 6 -9 19 -7 29 4
22 44 29 223 39 61 4 112 9 114 11 8 8 13 -5 8 -20z m476 -51 c-7 -21 -13 -19
-13 6 0 11 4 18 10 14 5 -3 7 -12 3 -20z m1217 -25 c-5 -9 -6 -20 -3 -24 3 -3
1 -6 -6 -6 -17 0 -26 31 -11 40 8 5 9 13 4 21 -7 12 -5 12 9 0 12 -9 14 -18 7
-31z m935 30 c3 -5 1 -10 -4 -10 -6 0 -11 5 -11 10 0 6 2 10 4 10 3 0 8 -4 11
-10z m1581 -17 c-7 -7 -26 7 -26 19 0 6 6 6 15 -2 9 -7 13 -15 11 -17z m-3946
13 c0 -3 -4 -8 -10 -11 -5 -3 -10 -1 -10 4 0 6 5 11 10 11 6 0 10 -2 10 -4z
m3800 -26 c0 -5 -2 -10 -4 -10 -3 0 -8 5 -11 10 -3 6 -1 10 4 10 6 0 11 -4 11
-10z m-3605 -10 c-3 -5 -18 -10 -33 -10 -21 0 -24 2 -12 10 20 13 53 13 45 0z
m-515 -20 c0 -5 -5 -10 -11 -10 -5 0 -7 5 -4 10 3 6 8 10 11 10 2 0 4 -4 4
-10z m440 -42 c0 -4 0 -11 0 -15 0 -4 -11 -7 -25 -7 -14 0 -25 4 -24 10 0 5
-10 12 -23 15 -14 4 -5 6 25 6 26 0 47 -4 47 -9z m1260 -4 c0 -3 -7 -12 -15
-20 -16 -17 -18 -14 -9 10 6 15 24 23 24 10z m281 -18 c-7 -9 -7 -16 1 -24 21
-21 -2 -13 -25 9 -17 15 -18 19 -4 14 12 -5 17 -2 17 10 0 9 5 13 10 10 8 -5
8 -11 1 -19z m2206 2 c-3 -8 -6 -5 -6 6 -1 11 2 17 5 13 3 -3 4 -12 1 -19z
m-4017 2 c0 -5 -4 -10 -9 -10 -6 0 -13 5 -16 10 -3 6 1 10 9 10 9 0 16 -4 16
-10z m4540 0 c0 -5 -4 -10 -10 -10 -5 0 -10 5 -10 10 0 6 5 10 10 10 6 0 10
-4 10 -10z m-4377 -7 c3 -5 -6 -9 -19 -9 -13 -1 -24 2 -24 7 0 11 37 12 43 2z
m1601 -27 c4 -22 2 -25 -8 -16 -8 6 -12 20 -9 31 7 25 10 21 17 -15z m403 12
c-3 -8 -6 -5 -6 6 -1 11 2 17 5 13 3 -3 4 -12 1 -19z m-2342 2 c8 -13 -5 -13
-25 0 -13 8 -13 10 2 10 9 0 20 -4 23 -10z m2319 -23 c5 4 7 1 4 -7 -3 -8 -13
-16 -24 -18 -14 -2 -16 -1 -6 6 11 7 11 12 -2 24 -8 9 -12 19 -9 22 4 4 12 -3
18 -14 6 -11 15 -17 19 -13z m-1918 -4 c-10 -10 -19 5 -10 18 6 11 8 11 12 0
2 -7 1 -15 -2 -18z m3661 5 c-3 -8 -6 -5 -6 6 -1 11 2 17 5 13 3 -3 4 -12 1
-19z m-3813 0 c15 16 16 15 10 -16 -4 -20 -3 -32 4 -32 6 0 9 8 6 18 -5 14 -4
15 5 2 6 -8 11 -18 11 -22 0 -10 -65 -48 -83 -48 -23 0 -32 38 -13 59 9 10 16
26 16 37 1 18 2 18 14 2 12 -16 14 -16 30 0z m3794 -5 c-5 -25 -28 -28 -28 -4
0 12 6 21 16 21 9 0 14 -7 12 -17z m-4028 -3 c0 -5 -5 -10 -11 -10 -5 0 -7 5
-4 10 3 6 8 10 11 10 2 0 4 -4 4 -10z m3770 0 c0 -5 -4 -10 -10 -10 -5 0 -10
5 -10 10 0 6 5 10 10 10 6 0 10 -4 10 -10z m467 -15 c0 -8 -4 -12 -9 -9 -5 3
-6 10 -3 15 9 13 12 11 12 -6z m-4072 -5 c3 -5 1 -10 -4 -10 -6 0 -11 5 -11
10 0 6 2 10 4 10 3 0 8 -4 11 -10z m1740 -9 c-3 -5 -1 -12 5 -16 5 -3 10 -33
10 -66 0 -32 4 -59 9 -59 5 0 12 -7 15 -16 3 -8 2 -13 -3 -10 -5 3 -14 -1 -21
-9 -19 -23 -43 -20 -30 4 5 11 9 28 9 38 -1 17 -2 17 -6 1 -5 -21 -14 -23 -31
-6 -13 13 -16 4 -13 -38 2 -22 -38 -50 -61 -41 -8 3 -4 8 12 15 14 6 21 11 16
11 -4 1 -2 11 7 24 13 20 13 26 0 48 l-14 24 5 -25 c3 -14 1 -32 -4 -40 -8
-12 -10 -9 -10 11 0 15 -7 29 -15 33 -20 7 -19 32 3 41 14 5 15 4 5 -6 -7 -7
-13 -17 -13 -23 0 -18 20 9 25 34 5 24 21 40 43 40 6 0 12 4 12 8 0 5 10 14
23 20 28 14 29 14 22 3z m1455 -11 c-11 -21 -22 -25 -33 -13 -9 9 12 33 30 33
11 0 11 -4 3 -20z m-3210 -21 c0 -5 -4 -9 -10 -9 -5 0 -10 7 -10 16 0 8 5 12
10 9 6 -3 10 -10 10 -16z m1155 -9 c-3 -5 -14 -10 -23 -9 -14 0 -13 2 3 9 27
11 27 11 20 0z m705 -11 c0 -6 -4 -7 -10 -4 -5 3 -10 -1 -10 -9 0 -8 5 -18 12
-22 7 -4 8 -3 4 4 -5 8 1 12 15 12 17 0 19 -3 10 -13 -6 -8 -8 -17 -5 -20 3
-3 3 -11 -2 -18 -5 -9 -10 -7 -15 7 -7 17 -8 16 -9 -6 -1 -14 -1 -39 0 -57 1
-23 -4 -35 -19 -43 -16 -8 -21 -8 -21 1 0 8 -4 8 -15 -1 -8 -6 -22 -10 -31 -8
-13 2 -9 10 19 38 27 26 33 38 25 48 -8 9 -5 18 11 36 11 12 18 25 15 28 -9
10 6 49 17 43 5 -4 9 -11 9 -16z m55 1 c-3 -5 7 -3 22 5 26 14 29 14 46 -6 9
-12 17 -30 17 -41 0 -12 4 -16 11 -12 7 4 10 1 7 -7 -6 -17 50 -102 61 -94 5
2 14 -1 20 -9 7 -8 51 -26 99 -41 48 -15 92 -31 97 -36 6 -4 24 -10 40 -13 17
-2 32 -5 35 -7 3 -1 10 -3 15 -4 6 -2 12 -4 15 -5 3 -1 13 -3 23 -5 21 -4 23
11 1 19 -8 3 -12 10 -9 16 3 5 2 10 -4 10 -6 0 -8 6 -5 14 4 10 -10 22 -43 37
l-48 22 29 8 c16 5 32 13 36 19 9 15 41 19 62 9 11 -6 34 -3 64 7 44 15 49 15
60 -1 7 -9 18 -14 24 -10 19 12 102 17 95 5 -8 -13 25 -1 47 18 10 8 24 12 33
9 8 -4 15 -2 15 2 0 12 73 40 85 33 23 -14 47 -7 66 20 16 22 28 28 59 28 21
0 41 -6 43 -12 4 -10 7 -10 14 0 7 10 14 7 29 -9 19 -22 19 -22 -3 -17 -13 4
-26 2 -29 -3 -3 -5 4 -9 15 -9 11 0 27 -10 35 -22 14 -20 14 -23 0 -31 -12 -7
-13 -12 -3 -23 9 -11 9 -14 0 -14 -7 0 -9 -4 -6 -10 3 -5 -1 -10 -9 -10 -9 0
-16 -5 -16 -11 0 -5 6 -7 13 -4 6 4 4 0 -5 -8 -16 -12 -16 -15 -1 -29 15 -15
10 -43 -6 -34 -4 3 -8 -1 -8 -9 0 -8 4 -12 8 -9 10 6 39 -24 39 -42 0 -8 -5
-14 -11 -14 -6 0 -8 -9 -4 -20 7 -23 6 -24 -29 -10 -35 13 -33 3 2 -12 l27
-12 -25 -4 c-13 -2 -26 1 -28 7 -2 6 -8 11 -14 11 -25 0 16 -29 44 -32 18 -2
34 -9 36 -17 3 -10 -1 -12 -16 -8 -19 4 -20 2 -12 -14 6 -11 16 -16 26 -12 12
4 14 0 8 -23 -9 -40 -24 -54 -25 -23 0 22 -1 22 -8 4 -6 -14 -4 -23 8 -29 17
-10 32 -28 27 -33 -2 -2 -15 1 -30 6 -21 9 -26 8 -26 -5 0 -11 -6 -14 -22 -9
-22 6 -22 6 2 -14 14 -11 28 -21 31 -21 4 0 6 -11 5 -25 -1 -19 -5 -23 -18
-19 -13 4 -16 1 -12 -10 3 -9 1 -16 -6 -16 -6 0 -9 -3 -7 -7 3 -5 -1 -14 -9
-20 -10 -10 -15 -10 -23 4 -5 10 -13 14 -17 10 -4 -4 -16 0 -26 10 -14 13 -18
13 -19 2 -1 -8 -4 1 -8 20 -3 19 -11 36 -18 38 -9 3 -10 -4 -3 -28 14 -48 5
-46 -25 6 -26 44 -48 58 -26 17 15 -28 14 -55 -1 -46 -6 4 -4 -3 5 -15 8 -13
13 -30 10 -38 -5 -12 -8 -11 -24 3 -17 16 -18 15 -12 -20 6 -37 6 -37 -21 -25
-28 13 -33 24 -13 32 7 3 5 6 -5 6 -21 1 -25 21 -4 21 7 0 16 11 18 24 4 22 3
23 -19 15 -18 -6 -28 -5 -38 5 -8 7 -12 16 -9 19 3 3 1 8 -4 11 -15 9 -8 -21
10 -41 16 -19 13 -48 -4 -37 -6 4 -8 -1 -3 -15 3 -11 2 -28 -3 -36 -7 -14 -10
-14 -21 -2 -6 9 -21 13 -32 10 -15 -4 -22 0 -26 16 -5 21 -33 30 -33 10 0 -5
5 -7 10 -4 6 3 10 4 10 1 0 -2 3 -11 6 -20 4 -11 1 -16 -11 -16 -9 0 -13 -4
-10 -10 6 -10 40 -8 51 3 9 9 34 -12 34 -27 0 -6 -4 -5 -9 3 -5 8 -16 11 -26
8 -9 -4 -13 -11 -10 -17 4 -6 10 -8 15 -5 9 5 -5 -53 -14 -63 -6 -5 -21 30
-27 62 -5 24 -29 34 -29 12 0 -9 -5 -16 -11 -16 -5 0 -7 -4 -4 -10 9 -15 -4
-12 -21 4 -16 16 -19 30 -5 21 5 -3 12 3 16 14 7 22 -9 52 -35 68 -14 9 -16 7
-12 -20 3 -20 1 -28 -7 -23 -11 7 -16 -16 -13 -56 1 -10 -2 -18 -7 -18 -5 0
-8 -7 -7 -16 0 -10 -8 -18 -21 -20 -13 -2 -23 1 -23 7 0 5 -5 7 -12 3 -8 -5
-9 -2 -5 9 3 10 3 17 -1 17 -4 0 -18 3 -31 7 -16 4 -22 2 -18 -4 4 -6 0 -13
-8 -16 -9 -4 -12 -1 -8 9 4 10 0 12 -11 8 -13 -5 -15 -2 -9 12 4 11 13 25 20
32 6 7 10 18 7 26 -3 7 2 19 11 26 12 10 15 10 15 0 0 -10 3 -10 15 0 12 10
12 16 4 26 -6 8 -9 21 -5 29 3 9 0 15 -9 15 -7 0 -15 8 -17 18 -3 12 -6 9 -10
-10 -3 -15 -2 -26 2 -25 5 1 8 -2 9 -8 1 -5 -4 -10 -9 -10 -15 0 -30 -27 -23
-39 4 -5 -1 -7 -10 -3 -10 3 -17 2 -17 -3 0 -5 -7 -7 -15 -4 -8 4 -12 10 -9
15 3 5 0 9 -5 9 -6 0 -11 11 -11 25 0 14 -5 25 -11 25 -8 0 -7 6 2 18 7 9 9
14 5 10 -5 -4 -15 -3 -23 3 -10 9 -17 8 -28 -1 -8 -7 -15 -9 -15 -4 0 5 -5 2
-10 -6 -7 -11 -8 -5 -4 20 4 26 3 31 -5 20 -8 -11 -11 -12 -11 -2 0 8 10 23
23 33 l22 20 -27 -16 c-15 -9 -28 -24 -30 -33 -3 -13 -6 -13 -22 4 -11 10 -22
18 -25 17 -3 -1 -5 5 -5 13 1 10 -5 14 -20 12 -12 -2 -20 2 -19 9 2 7 -3 10
-11 7 -23 -9 -28 14 -7 28 16 9 18 16 9 31 -9 17 -8 19 11 14 28 -7 26 4 -5
34 -19 17 -28 20 -31 11 -4 -9 -8 -10 -18 -2 -7 6 -17 10 -21 9 -23 -4 -45 2
-39 11 3 6 1 10 -4 10 -6 0 -11 7 -11 15 0 9 -11 21 -25 27 -43 19 -27 41 40
54 6 1 15 3 20 4 6 1 1 5 -10 9 -11 5 -25 5 -31 0 -6 -5 -19 -6 -28 -3 -13 5
-14 9 -5 20 10 12 9 13 -5 8 -12 -5 -15 -2 -9 12 4 12 3 15 -5 10 -16 -10 -15
7 1 23 10 10 9 11 -5 6 -11 -4 -18 -2 -18 5 0 6 -5 8 -12 4 -7 -4 -8 -3 -4 4
4 7 17 12 29 13 20 0 21 1 3 8 -14 5 -16 10 -8 15 7 4 10 11 7 16 -3 5 0 12 5
15 7 5 5 12 -7 20 -15 12 -16 17 -5 34 14 25 16 57 2 66 -5 3 -7 12 -4 20 4 8
10 12 15 9 5 -3 7 -9 4 -14z m-290 -10 c-10 -11 -21 -18 -23 -15 -3 3 3 12 14
20 27 20 30 18 9 -5z m2307 -20 c-12 -14 -18 -16 -24 -7 -4 6 -1 15 8 20 8 5
11 14 7 20 -4 8 -1 7 9 -1 15 -12 15 -15 0 -32z m78 30 c0 -5 -4 -10 -10 -10
-5 0 -10 5 -10 10 0 6 5 10 10 10 6 0 10 -4 10 -10z m70 -15 c0 -8 -2 -15 -4
-15 -2 0 -6 7 -10 15 -3 8 -1 15 4 15 6 0 10 -7 10 -15z m-2180 -35 c0 -5 -2
-10 -4 -10 -3 0 -8 5 -11 10 -3 6 -1 10 4 10 6 0 11 -4 11 -10z m-290 -55 c0
-8 -2 -15 -4 -15 -2 0 -6 7 -10 15 -3 8 -1 15 4 15 6 0 10 -7 10 -15z m1630
-47 c0 -7 3 -24 7 -37 4 -18 3 -22 -8 -19 -8 3 -13 13 -11 22 2 9 -4 19 -12
22 -9 3 -13 10 -10 15 8 13 34 11 34 -3z m-1426 -37 c8 -12 -61 -54 -74 -46
-5 3 -10 16 -9 28 0 12 3 16 6 10 2 -7 9 -13 14 -13 6 0 8 4 4 9 -3 5 5 12 17
14 13 2 26 5 30 6 4 0 9 -3 12 -8z m1286 -31 c0 -5 -4 -10 -10 -10 -5 0 -10 5
-10 10 0 6 5 10 10 10 6 0 10 -4 10 -10z m130 -15 c0 -8 -5 -15 -11 -15 -6 0
-9 -6 -6 -14 3 -8 -1 -17 -9 -20 -9 -4 -14 1 -14 16 0 17 -2 18 -15 8 -8 -7
-15 -8 -15 -2 0 12 40 41 58 41 6 1 12 -6 12 -14z m-1517 -15 c-3 -11 -9 -17
-15 -14 -5 3 -4 12 3 20 16 19 18 18 12 -6z m-640 3 c3 -5 -8 -9 -24 -10 -17
-1 -27 2 -24 7 7 12 42 13 48 3z m803 -73 c0 -11 -4 -20 -8 -20 -4 0 -8 2 -8
4 0 2 -3 11 -6 20 -4 10 -1 16 8 16 7 0 14 -9 14 -20z m1418 -5 c-4 -8 -10
-15 -15 -15 -5 0 -9 -4 -9 -10 0 -5 7 -10 16 -10 8 0 13 -4 9 -10 -3 -5 -13
-6 -22 -3 -11 4 -14 3 -9 -5 4 -7 1 -15 -8 -18 -9 -3 -16 -12 -16 -20 0 -8 -4
-14 -10 -14 -5 0 -10 -7 -10 -16 0 -8 -4 -13 -9 -10 -5 3 -8 17 -8 31 0 13 3
22 8 19 5 -3 9 6 9 20 0 17 6 26 16 26 9 0 12 5 8 12 -4 6 -3 8 3 5 6 -4 18 2
28 13 22 24 26 25 19 5z m26 -55 c0 -5 -5 -10 -11 -10 -5 0 -7 5 -4 10 3 6 8
10 11 10 2 0 4 -4 4 -10z m-16 -35 c-6 -16 -24 -21 -24 -7 0 11 11 22 21 22 5
0 6 -7 3 -15z m-1307 -37 c-3 -8 -6 -5 -6 6 -1 11 2 17 5 13 3 -3 4 -12 1 -19z
m33 -2 c0 -3 -4 -8 -10 -11 -5 -3 -10 -1 -10 4 0 6 5 11 10 11 6 0 10 -2 10
-4z m-93 -22 c2 -6 -3 -11 -12 -11 -8 0 -15 7 -15 15 0 15 22 12 27 -4z m117
-65 c5 -5 6 -12 2 -16 -4 -4 -10 -3 -14 3 -13 21 -52 27 -58 10 -9 -24 -23
-19 -17 5 5 18 11 20 42 14 20 -4 40 -11 45 -16z m-2517 -6 c-14 -4 -15 -8 -7
-18 8 -9 6 -14 -6 -19 -19 -7 -34 1 -34 19 0 15 16 24 45 23 17 0 18 -1 2 -5z
m-17 -57 c0 -3 -4 -8 -10 -11 -5 -3 -10 -1 -10 4 0 6 5 11 10 11 6 0 10 -2 10
-4z m10 -36 c0 -5 -5 -10 -11 -10 -5 0 -7 5 -4 10 3 6 8 10 11 10 2 0 4 -4 4
-10z m3350 -36 c0 -8 -5 -12 -10 -9 -6 4 -8 11 -5 16 9 14 15 11 15 -7z m-576
-110 l-7 -27 -13 25 c-7 14 -10 35 -7 47 5 22 6 22 20 2 8 -13 11 -30 7 -47z
m-2724 36 c0 -5 -4 -10 -10 -10 -5 0 -10 5 -10 10 0 6 5 10 10 10 6 0 10 -4
10 -10z m3227 -72 c-3 -8 -6 -5 -6 6 -1 11 2 17 5 13 3 -3 4 -12 1 -19z m-247
-49 c0 -6 -4 -7 -10 -4 -5 3 -10 11 -10 16 0 6 5 7 10 4 6 -3 10 -11 10 -16z
m-2800 -133 c0 -3 -4 -8 -10 -11 -5 -3 -10 -1 -10 4 0 6 5 11 10 11 6 0 10 -2
10 -4z m20 -36 c0 -5 -5 -10 -11 -10 -5 0 -7 5 -4 10 3 6 8 10 11 10 2 0 4 -4
4 -10z m3640 -31 c0 -6 -4 -7 -10 -4 -5 3 -10 11 -10 16 0 6 5 7 10 4 6 -3 10
-11 10 -16z m-3610 1 c0 -5 -4 -10 -10 -10 -5 0 -10 5 -10 10 0 6 5 10 10 10
6 0 10 -4 10 -10z m50 -70 c0 -5 -7 -10 -16 -10 -8 0 -12 5 -9 10 3 6 10 10
16 10 5 0 9 -4 9 -10z m20 -40 c0 -5 -7 -10 -16 -10 -8 0 -12 5 -9 10 3 6 10
10 16 10 5 0 9 -4 9 -10z m20 -40 c0 -5 -7 -10 -16 -10 -8 0 -12 5 -9 10 3 6
10 10 16 10 5 0 9 -4 9 -10z m7 -46 c-3 -3 -12 -4 -19 -1 -8 3 -5 6 6 6 11 1
17 -2 13 -5z m8 -44 c-3 -5 -11 -10 -16 -10 -6 0 -7 5 -4 10 3 6 11 10 16 10
6 0 7 -4 4 -10z m3598 -81 c4 -16 3 -18 -9 -8 -7 6 -11 15 -8 20 8 13 11 11
17 -12z m139 -281 c-9 -9 -42 -1 -42 12 0 4 12 5 26 2 15 -3 22 -8 16 -14z
m-3652 -68 c0 -5 -5 -10 -11 -10 -5 0 -7 5 -4 10 3 6 8 10 11 10 2 0 4 -4 4
-10z m30 -34 c0 -3 -4 -8 -10 -11 -5 -3 -10 -1 -10 4 0 6 5 11 10 11 6 0 10
-2 10 -4z m30 -35 c0 -5 -7 -12 -16 -15 -14 -5 -15 -4 -4 9 14 17 20 19 20 6z
m15 -50 c-3 -6 -11 -11 -17 -11 -6 0 -6 6 2 15 14 17 26 13 15 -4z"/>
<path d="M5176 4813 c-6 -14 -5 -15 5 -6 7 7 10 15 7 18 -3 3 -9 -2 -12 -12z"/>
<path d="M3830 4720 c-9 -6 -10 -10 -3 -10 6 0 15 5 18 10 8 12 4 12 -15 0z"/>
<path d="M3316 4674 c-5 -14 -4 -15 9 -4 17 14 19 20 6 20 -5 0 -12 -7 -15
-16z"/>
<path d="M2896 4343 c-6 -14 -5 -15 5 -6 7 7 10 15 7 18 -3 3 -9 -2 -12 -12z"/>
<path d="M2870 4300 c-6 -11 -8 -20 -6 -20 3 0 10 9 16 20 6 11 8 20 6 20 -3
0 -10 -9 -16 -20z"/>
<path d="M2905 4300 c-3 -5 -1 -10 4 -10 6 0 11 5 11 10 0 6 -2 10 -4 10 -3 0
-8 -4 -11 -10z"/>
<path d="M2840 4239 c0 -5 5 -7 10 -4 6 3 10 8 10 11 0 2 -4 4 -10 4 -5 0 -10
-5 -10 -11z"/>
<path d="M2765 4210 c-3 -5 -1 -10 4 -10 6 0 11 5 11 10 0 6 -2 10 -4 10 -3 0
-8 -4 -11 -10z"/>
<path d="M3993 3683 c-4 -9 -16 -12 -42 -8 l-36 5 33 -10 c17 -6 32 -12 32
-15 0 -2 -23 -3 -52 -3 -34 1 -45 4 -32 9 14 5 11 7 -13 6 -17 -1 -29 -5 -26
-9 2 -5 -1 -8 -7 -8 -7 0 -26 -6 -43 -14 -18 -8 -50 -17 -72 -19 -22 -3 -58
-10 -80 -17 -22 -7 -56 -13 -76 -14 -20 0 -42 -6 -50 -13 -8 -6 -35 -14 -61
-18 -27 -4 -48 -12 -48 -18 0 -6 -6 -3 -13 7 -12 16 -13 15 -12 -11 0 -22 -4
-27 -19 -25 -11 2 -15 -1 -11 -7 3 -6 18 -11 33 -11 l27 -1 -25 -15 c-14 -8
-17 -13 -8 -10 10 3 20 1 24 -5 3 -6 12 -8 20 -5 25 10 10 -18 -23 -43 -37
-28 -43 -42 -13 -34 19 5 20 2 17 -31 -5 -41 -1 -43 33 -19 l24 17 -22 -31
c-27 -38 -28 -53 -3 -53 11 0 23 -4 26 -10 3 -5 16 -10 28 -10 20 -1 20 -2 4
-11 -9 -5 -21 -8 -26 -4 -23 14 -18 -15 7 -36 37 -34 192 -89 192 -69 0 5 -6
11 -12 13 -9 4 -9 6 2 6 10 1 8 6 -8 17 -29 20 -29 51 -1 49 11 -1 24 -7 29
-14 5 -8 10 -9 14 -3 3 6 29 9 56 7 48 -3 50 -2 50 23 0 20 -3 23 -12 14 -15
-15 -55 -16 -63 -1 -4 5 -19 9 -33 7 -15 -2 -28 1 -29 6 -1 5 -7 13 -15 18 -9
7 -7 7 7 2 11 -5 55 -9 98 -11 l77 -2 29 40 c18 24 32 35 36 29 4 -6 13 -9 21
-6 20 8 17 -14 -3 -31 -17 -13 -16 -14 5 -9 18 3 22 1 18 -11 -3 -8 -6 -17 -6
-19 0 -3 -5 -2 -12 2 -7 5 -8 3 -4 -5 5 -7 15 -9 25 -6 15 6 59 13 136 19 17
1 38 3 48 4 18 2 25 32 7 32 -5 0 -9 3 -8 8 5 16 -40 54 -97 81 -61 30 -148
53 -240 66 -62 8 -87 21 -66 34 16 11 142 31 221 36 30 2 55 4 55 5 0 1 25 2
55 3 38 1 54 -2 53 -10 -2 -9 5 -9 28 -1 33 11 52 3 29 -13 -12 -8 -9 -9 10
-5 14 3 29 6 34 6 4 0 6 7 2 15 -4 12 -2 13 12 6 21 -11 36 -4 45 22 4 11 1
17 -8 17 -8 0 -15 5 -15 10 0 6 5 10 12 10 19 0 -32 48 -81 77 -27 16 -62 27
-90 28 -25 1 -46 4 -46 5 0 10 -48 4 -52 -7z m27 -27 c0 -2 -7 -7 -16 -10 -8
-3 -12 -2 -9 4 6 10 25 14 25 6z m25 -302 c32 -24 12 -23 -40 0 -28 13 -67 29
-87 37 -21 7 -38 16 -38 21 0 9 139 -40 165 -58z m-225 -4 c0 -5 -4 -10 -9
-10 -6 0 -13 5 -16 10 -3 6 1 10 9 10 9 0 16 -4 16 -10z m-326 -45 c4 -10 -1
-15 -14 -15 -20 0 -26 11 -13 23 10 11 20 8 27 -8z m36 5 c0 -5 -2 -10 -4 -10
-3 0 -8 5 -11 10 -3 6 -1 10 4 10 6 0 11 -4 11 -10z m98 -8 c2 -7 -2 -10 -12
-6 -9 3 -16 11 -16 16 0 13 23 5 28 -10z"/>
<path d="M3886 3225 c-3 -9 2 -13 15 -12 22 2 25 13 5 20 -8 3 -17 0 -20 -8z"/>
<path d="M3835 3210 c27 -12 35 -12 35 0 0 6 -12 10 -27 9 -25 0 -26 -1 -8 -9z"/>
<path d="M3470 3176 c0 -2 8 -10 18 -17 15 -13 16 -12 3 4 -13 16 -21 21 -21
13z"/>
<path d="M3059 2818 c-7 -23 -4 -35 7 -35 9 0 11 4 4 12 -5 7 -7 15 -3 18 3 4
3 7 0 7 -4 0 -7 -1 -8 -2z"/>
<path d="M3055 2720 c3 -5 8 -10 11 -10 2 0 4 5 4 10 0 6 -5 10 -11 10 -5 0
-7 -4 -4 -10z"/>
<path d="M2080 2695 c-17 -21 -9 -27 13 -10 10 7 14 16 9 19 -5 3 -15 -1 -22
-9z"/>
<path d="M2110 2655 c0 -8 5 -15 10 -15 6 0 10 7 10 15 0 8 -4 15 -10 15 -5 0
-10 -7 -10 -15z"/>
<path d="M2145 2648 c-12 -30 -1 -37 25 -16 14 12 18 19 8 15 -9 -3 -19 -1
-21 6 -3 8 -7 6 -12 -5z"/>
<path d="M3549 2647 c-7 -18 -5 -40 5 -50 7 -6 17 -20 22 -29 19 -35 136 -148
152 -148 10 0 24 -6 31 -12 17 -17 -7 40 -27 64 -8 9 -11 22 -6 29 4 7 3 10
-2 6 -5 -3 -25 17 -44 44 -19 27 -41 49 -48 49 -7 0 -15 6 -18 14 -4 12 -62
41 -65 33z"/>
<path d="M2185 2551 c-3 -5 -2 -12 3 -15 5 -3 9 1 9 9 0 17 -3 19 -12 6z"/>
<path d="M4245 2473 c3 -12 1 -24 -5 -28 -5 -3 -10 -15 -10 -26 0 -13 4 -18
12 -13 8 5 9 2 5 -10 -4 -11 -3 -15 4 -10 6 3 8 16 5 27 -3 12 2 30 12 42 9
11 13 17 8 13 -5 -4 -15 0 -23 10 -13 16 -14 15 -8 -5z"/>
<path d="M4271 2424 c0 -11 3 -14 6 -6 3 7 2 16 -1 19 -3 4 -6 -2 -5 -13z"/>
<path d="M3417 2394 c-11 -11 3 -24 18 -18 8 4 12 10 9 15 -6 11 -18 12 -27 3z"/>
<path d="M4200 2360 c0 -7 -3 -10 -6 -7 -11 10 -43 -57 -33 -67 5 -6 9 -18 9
-28 0 -10 5 -18 10 -18 6 0 10 9 10 20 0 11 -4 20 -10 20 -5 0 -10 10 -10 22
0 21 0 21 15 2 15 -18 16 -18 13 6 -1 14 1 31 6 38 4 7 5 16 2 19 -3 4 -6 0
-6 -7z"/>
<path d="M3460 2355 c-1 -5 -2 -14 -1 -19 1 -5 -5 -6 -12 -3 -12 4 -14 -2 -10
-30 3 -22 1 -33 -5 -29 -13 8 -24 -35 -12 -49 6 -7 6 -15 2 -20 -4 -4 3 -2 15
4 13 6 33 25 45 41 13 19 24 26 29 19 3 -6 8 0 11 13 4 20 1 24 -16 22 -12 -1
-21 -3 -21 -4 0 -1 -8 -3 -17 -5 -15 -3 -16 0 -7 16 6 11 8 28 6 37 -3 9 -6
13 -7 7z"/>
<path d="M3542 2289 c-7 -11 -10 -24 -7 -29 4 -6 1 -10 -4 -10 -6 0 -11 -16
-11 -36 l0 -36 28 24 c22 18 28 31 27 56 -3 44 -17 57 -33 31z"/>
<path d="M3095 2260 c-3 -5 1 -10 9 -10 9 0 16 -4 16 -10 0 -5 7 -7 16 -3 15
6 15 8 -2 20 -21 16 -31 16 -39 3z"/>
<path d="M4106 2223 c-6 -14 -5 -15 5 -6 7 7 10 15 7 18 -3 3 -9 -2 -12 -12z"/>
<path d="M3818 2212 c-4 -12 -2 -24 2 -27 13 -8 18 8 10 29 -6 19 -7 19 -12
-2z"/>
<path d="M4107 2193 c-4 -6 -4 -19 -1 -28 4 -10 -2 -24 -15 -36 -26 -24 -28
-52 -3 -47 10 2 16 11 14 22 -2 11 2 22 8 26 6 4 10 22 8 41 -2 20 -6 29 -11
22z"/>
<path d="M4141 2184 c0 -11 3 -14 6 -6 3 7 2 16 -1 19 -3 4 -6 -2 -5 -13z"/>
<path d="M4180 2188 c0 -9 -6 -19 -12 -21 -10 -4 -10 -6 0 -6 14 -1 28 26 18
36 -3 4 -6 -1 -6 -9z"/>
<path d="M3480 2169 c0 -5 5 -7 10 -4 6 3 10 8 10 11 0 2 -4 4 -10 4 -5 0 -10
-5 -10 -11z"/>
<path d="M4028 2172 c-26 -5 -22 -17 8 -31 32 -14 34 -12 20 14 -6 12 -19 19
-28 17z"/>
<path d="M4185 2140 c3 -5 8 -10 11 -10 2 0 4 5 4 10 0 6 -5 10 -11 10 -5 0
-7 -4 -4 -10z"/>
<path d="M4152 2105 c0 -16 2 -22 5 -12 2 9 2 23 0 30 -3 6 -5 -1 -5 -18z"/>
<path d="M4022 2080 c-6 -10 -8 -21 -3 -24 5 -3 11 4 14 16 8 29 4 32 -11 8z"/>
<path d="M3980 2051 c0 -10 19 -25 25 -20 1 2 -3 10 -11 17 -8 7 -14 8 -14 3z"/>
<path d="M4013 1980 c1 -16 5 -30 9 -30 4 0 6 13 5 30 -1 16 -5 30 -9 30 -4 0
-6 -13 -5 -30z"/>
<path d="M3960 1960 c0 -11 4 -20 9 -20 5 0 7 9 4 20 -3 11 -7 20 -9 20 -2 0
-4 -9 -4 -20z"/>
<path d="M5765 4509 c-4 -6 -5 -12 -2 -15 2 -3 7 2 10 11 7 17 1 20 -8 4z"/>
<path d="M5616 4166 c3 -9 11 -16 16 -16 13 0 5 23 -10 28 -7 2 -10 -2 -6 -12z"/>
<path d="M5170 3924 c0 -8 5 -12 10 -9 6 4 8 11 5 16 -9 14 -15 11 -15 -7z"/>
<path d="M5047 3889 c7 -7 15 -10 18 -7 3 3 -2 9 -12 12 -14 6 -15 5 -6 -5z"/>
<path d="M4680 4151 c0 -10 19 -25 25 -20 1 2 -3 10 -11 17 -8 7 -14 8 -14 3z"/>
<path d="M4716 4113 c-6 -14 -5 -15 5 -6 7 7 10 15 7 18 -3 3 -9 -2 -12 -12z"/>
<path d="M5340 3809 c0 -5 5 -7 10 -4 6 3 10 8 10 11 0 2 -4 4 -10 4 -5 0 -10
-5 -10 -11z"/>
<path d="M4790 3886 c0 -2 7 -7 16 -10 8 -3 12 -2 9 4 -6 10 -25 14 -25 6z"/>
<path d="M3041 1934 c0 -11 3 -14 6 -6 3 7 2 16 -1 19 -3 4 -6 -2 -5 -13z"/>
<path d="M2677 1893 c-21 -5 -19 -36 3 -41 10 -2 15 6 15 23 0 14 0 24 0 24 0
-1 -8 -3 -18 -6z"/>
<path d="M3041 1875 c0 -11 3 -26 8 -33 7 -11 9 -11 14 2 4 9 2 16 -3 16 -5 0
-11 8 -13 18 -4 14 -5 14 -6 -3z"/>
<path d="M2658 1783 c5 -21 7 -23 10 -9 2 10 0 22 -6 28 -6 6 -7 0 -4 -19z"/>
<path d="M2680 1746 c0 -7 -7 -19 -15 -26 -14 -12 -13 -15 4 -31 27 -25 31
-24 31 7 0 14 4 23 9 20 4 -3 6 6 3 19 -5 26 -32 35 -32 11z"/>
<path d="M2910 1676 c0 -2 7 -9 15 -16 9 -7 15 -8 15 -2 0 5 -7 12 -15 16 -8
3 -15 4 -15 2z"/>
<path d="M3215 1664 c-8 -9 -22 -13 -30 -10 -8 3 -21 -1 -29 -9 -12 -13 -15
-13 -20 0 -7 18 -46 20 -46 2 0 -7 -18 -20 -40 -30 -44 -19 -47 -22 -24 -31
10 -4 13 -2 8 7 -5 7 0 6 12 -3 10 -8 21 -16 23 -17 2 -1 -2 -9 -9 -18 -7 -9
-8 -15 -2 -15 6 0 12 6 15 13 2 6 11 -2 20 -20 20 -38 21 -47 5 -37 -7 4 -8 3
-4 -5 6 -9 11 -9 22 0 11 9 11 13 -2 26 -18 19 -10 31 10 14 10 -8 16 -9 21
-1 3 5 -1 13 -9 16 -23 9 -20 31 5 39 25 8 39 -3 19 -15 -12 -7 -10 -9 6 -8
15 2 20 7 16 20 -3 12 1 18 11 18 8 0 18 6 20 13 3 7 6 5 6 -5 1 -10 6 -18 12
-18 6 0 8 9 4 20 -3 11 -2 20 3 20 16 0 20 24 6 37 -10 10 -16 9 -29 -3z m-83
-66 c-7 -7 -12 -8 -12 -2 0 14 12 26 19 19 2 -3 -1 -11 -7 -17z m-29 -27 c3
-14 1 -18 -9 -14 -15 6 -18 16 -7 26 9 10 10 9 16 -12z"/>
<path d="M3293 1655 c-7 -16 -8 -27 -1 -31 14 -9 20 1 16 30 l-3 26 -12 -25z"/>
<path d="M2957 1663 c-3 -3 -3 -11 0 -19 7 -20 47 -17 66 4 15 16 15 19 2 19
-8 0 -15 -4 -15 -8 0 -5 -11 -4 -24 1 -13 5 -26 6 -29 3z"/>
<path d="M3215 1560 c-3 -5 -1 -10 4 -10 6 0 11 5 11 10 0 6 -2 10 -4 10 -3 0
-8 -4 -11 -10z"/>
<path d="M3227 1533 c-3 -5 1 -17 9 -28 14 -18 14 -18 14 2 0 23 -15 39 -23
26z"/>
<path d="M3541 1509 c5 -11 7 -24 4 -29 -3 -6 2 -10 12 -10 27 0 25 33 -3 47
-22 10 -23 9 -13 -8z"/>
<path d="M3437 1474 c-6 -10 20 -51 27 -43 2 2 -1 15 -8 28 -7 13 -16 20 -19
15z"/>
<path d="M3190 1433 c-15 -18 -23 -66 -8 -57 4 3 8 0 8 -7 0 -7 2 -10 5 -7 4
4 16 89 12 88 -1 -1 -9 -8 -17 -17z"/>
<path d="M3415 1440 c3 -5 8 -10 11 -10 2 0 4 5 4 10 0 6 -5 10 -11 10 -5 0
-7 -4 -4 -10z"/>
<path d="M3036 1282 c-12 -20 10 -30 34 -17 14 8 23 15 20 15 -35 8 -50 8 -54
2z"/>
<path d="M3296 5743 c-6 -14 -5 -15 5 -6 7 7 10 15 7 18 -3 3 -9 -2 -12 -12z"/>
<path d="M3420 5690 c0 -5 5 -10 11 -10 5 0 7 5 4 10 -3 6 -8 10 -11 10 -2 0
-4 -4 -4 -10z"/>
<path d="M5095 5519 c-4 -6 -5 -12 -2 -15 2 -3 7 2 10 11 7 17 1 20 -8 4z"/>
<path d="M5070 5470 c0 -5 5 -10 10 -10 6 0 10 5 10 10 0 6 -4 10 -10 10 -5 0
-10 -4 -10 -10z"/>
<path d="M4266 5391 c-10 -11 -16 -26 -13 -33 4 -10 6 -10 6 1 1 8 8 23 18 33
9 10 14 18 11 18 -3 0 -13 -9 -22 -19z"/>
<path d="M5129 5373 c-1 -34 -4 -58 -13 -98 -5 -24 -5 -26 3 -9 5 12 14 25 20
29 6 3 9 10 6 15 -3 4 2 25 11 45 8 20 10 34 5 30 -6 -3 -11 -1 -11 4 0 25
-20 9 -21 -16z"/>
<path d="M5031 5334 c0 -11 3 -14 6 -6 3 7 2 16 -1 19 -3 4 -6 -2 -5 -13z"/>
<path d="M4303 5283 c0 -7 4 -13 8 -13 4 0 9 6 12 13 3 8 0 14 -7 14 -7 0 -13
-6 -13 -14z"/>
<path d="M5020 5247 c0 -31 4 -59 10 -62 6 -4 8 15 4 52 -8 76 -14 80 -14 10z"/>
<path d="M4549 5263 c-13 -16 -12 -17 4 -4 16 13 21 21 13 21 -2 0 -10 -8 -17
-17z"/>
<path d="M4180 5260 c0 -5 5 -10 10 -10 6 0 10 5 10 10 0 6 -4 10 -10 10 -5 0
-10 -4 -10 -10z"/>
<path d="M4857 5220 c3 -11 9 -22 13 -25 5 -3 6 4 3 15 -3 11 -9 22 -13 25 -5
3 -6 -4 -3 -15z"/>
<path d="M5230 5149 c0 -6 -7 -9 -15 -5 -9 3 -15 0 -15 -9 0 -7 -8 -21 -17
-30 -16 -16 -15 -17 3 -13 10 2 18 10 16 17 -1 7 7 15 18 18 17 5 30 33 15 33
-3 0 -5 -5 -5 -11z"/>
<path d="M5521 5144 c0 -11 3 -14 6 -6 3 7 2 16 -1 19 -3 4 -6 -2 -5 -13z"/>
<path d="M5396 5135 c-3 -8 -11 -13 -18 -11 -7 1 -9 1 -5 -2 4 -2 3 -10 -4
-18 -6 -8 -7 -14 -2 -14 10 0 34 24 47 48 4 6 3 12 -2 12 -6 0 -12 -7 -16 -15z"/>
<path d="M239 5118 c-6 -21 -5 -39 2 -44 5 -3 9 6 9 20 0 21 -7 36 -11 24z"/>
<path d="M4671 5104 c0 -11 3 -14 6 -6 3 7 2 16 -1 19 -3 4 -6 -2 -5 -13z"/>
<path d="M5097 5102 c-12 -13 -14 -21 -6 -29 13 -13 -9 -53 -31 -54 -11 0 -12
-2 -2 -6 16 -6 58 31 65 58 3 12 1 17 -6 13 -8 -5 -7 -2 1 7 6 7 12 17 12 21
0 14 -16 9 -33 -10z"/>
<path d="M195 5100 c-3 -5 -25 -10 -48 -11 -38 -1 -39 -1 -15 -9 16 -5 34 -7
42 -6 16 2 51 36 37 36 -5 0 -13 -4 -16 -10z"/>
<path d="M4910 5099 c13 -6 34 -18 45 -27 13 -11 12 -8 -4 11 -14 15 -34 27
-45 26 -19 0 -18 -1 4 -10z"/>
<path d="M5565 5088 c-2 -7 -5 -29 -7 -49 -3 -33 -2 -35 14 -26 9 6 13 14 8
17 -6 4 -6 18 -1 38 6 20 6 32 0 32 -5 0 -11 -6 -14 -12z"/>
<path d="M4660 5059 c0 -5 5 -7 10 -4 6 3 10 8 10 11 0 2 -4 4 -10 4 -5 0 -10
-5 -10 -11z"/>
<path d="M4946 5047 c3 -10 9 -15 12 -12 3 3 0 11 -7 18 -10 9 -11 8 -5 -6z"/>
<path d="M4721 5013 c0 -12 -5 -25 -11 -28 -19 -12 -31 -43 -18 -51 6 -4 9 -3
5 2 -3 5 1 17 8 27 13 18 14 17 20 -2 9 -31 22 -26 23 9 0 17 -3 30 -8 30 -5
0 -11 8 -13 18 -4 13 -5 12 -6 -5z"/>
<path d="M5140 5012 c0 -22 -43 -65 -55 -55 -4 5 -5 1 -3 -7 3 -8 -3 -25 -14
-36 -15 -17 -17 -23 -6 -30 7 -4 10 -4 6 0 -7 8 11 33 49 70 25 24 48 76 33
76 -6 0 -10 -8 -10 -18z"/>
<path d="M5027 4972 c-15 -16 -15 -19 -2 -19 8 0 13 3 10 5 -3 3 0 11 6 19 17
20 5 16 -14 -5z"/>
<path d="M128 4947 c-4 -10 -22 -24 -40 -32 -27 -12 -29 -14 -11 -15 12 0 25
4 28 10 3 5 19 7 34 4 24 -5 31 -2 41 17 10 22 10 22 -3 7 -19 -24 -35 -22
-39 5 -3 19 -4 20 -10 4z"/>
<path d="M5097 4906 c-4 -10 -1 -13 8 -9 8 3 12 9 9 14 -7 12 -11 11 -17 -5z"/>
<path d="M4890 4864 c0 -8 5 -12 10 -9 6 3 10 10 10 16 0 5 -4 9 -10 9 -5 0
-10 -7 -10 -16z"/>
<path d="M4586 4833 c-6 -14 -5 -15 5 -6 7 7 10 15 7 18 -3 3 -9 -2 -12 -12z"/>
<path d="M4741 4684 c0 -11 3 -14 6 -6 3 7 2 16 -1 19 -3 4 -6 -2 -5 -13z"/>
<path d="M4645 4670 c-3 -5 -1 -10 4 -10 6 0 11 5 11 10 0 6 -2 10 -4 10 -3 0
-8 -4 -11 -10z"/>
<path d="M4681 4634 c0 -11 3 -14 6 -6 3 7 2 16 -1 19 -3 4 -6 -2 -5 -13z"/>
<path d="M1380 4155 c0 -8 2 -15 4 -15 2 0 6 7 10 15 3 8 1 15 -4 15 -6 0 -10
-7 -10 -15z"/>
<path d="M1387 4043 c3 -7 9 -10 14 -7 14 8 11 21 -5 21 -8 0 -12 -6 -9 -14z"/>
<path d="M1250 3990 c0 -5 5 -10 10 -10 6 0 10 5 10 10 0 6 -4 10 -10 10 -5 0
-10 -4 -10 -10z"/>
<path d="M1255 3960 c3 -5 8 -10 11 -10 2 0 4 5 4 10 0 6 -5 10 -11 10 -5 0
-7 -4 -4 -10z"/>
<path d="M1376 3953 c-6 -14 -5 -15 5 -6 7 7 10 15 7 18 -3 3 -9 -2 -12 -12z"/>
<path d="M1321 3914 c0 -11 3 -14 6 -6 3 7 2 16 -1 19 -3 4 -6 -2 -5 -13z"/>
<path d="M1356 3884 c-4 -14 -5 -28 -3 -31 3 -2 8 8 11 23 4 14 5 28 3 31 -3
2 -8 -8 -11 -23z"/>
<path d="M760 3836 c0 -8 5 -18 10 -21 6 -3 10 3 10 14 0 12 -4 21 -10 21 -5
0 -10 -6 -10 -14z"/>
<path d="M1285 3829 c-4 -6 -5 -12 -2 -15 2 -3 7 2 10 11 7 17 1 20 -8 4z"/>
<path d="M48 3803 c7 -3 16 -2 19 1 4 3 -2 6 -13 5 -11 0 -14 -3 -6 -6z"/>
<path d="M0 3740 c0 -5 5 -10 11 -10 5 0 7 5 4 10 -3 6 -8 10 -11 10 -2 0 -4
-4 -4 -10z"/>
<path d="M70 3739 c0 -6 -7 -9 -15 -6 -8 4 -17 2 -20 -3 -10 -16 32 -11 45 5
9 10 9 15 1 15 -6 0 -11 -5 -11 -11z"/>
<path d="M80 3710 c0 -6 7 -10 15 -10 8 0 15 2 15 4 0 2 -7 6 -15 10 -8 3 -15
1 -15 -4z"/>
<path d="M1031 3683 c-10 -26 -10 -27 4 -9 8 11 15 23 15 28 0 15 -7 8 -19
-19z"/>
<path d="M1070 3700 c0 -5 5 -10 10 -10 6 0 10 -7 8 -16 -2 -10 3 -19 10 -21
8 -3 12 6 12 26 0 24 -4 31 -20 31 -11 0 -20 -4 -20 -10z"/>
<path d="M1435 3699 c-4 -6 -5 -12 -2 -15 2 -3 7 2 10 11 7 17 1 20 -8 4z"/>
<path d="M1005 3689 c-4 -6 -5 -12 -2 -15 2 -3 7 2 10 11 7 17 1 20 -8 4z"/>
<path d="M1380 3649 c-6 -11 -10 -25 -8 -30 2 -5 8 4 15 21 13 34 9 40 -7 9z"/>
<path d="M930 3649 c0 -5 5 -7 10 -4 6 3 10 8 10 11 0 2 -4 4 -10 4 -5 0 -10
-5 -10 -11z"/>
<path d="M1351 3634 c0 -11 3 -14 6 -6 3 7 2 16 -1 19 -3 4 -6 -2 -5 -13z"/>
<path d="M736 3612 c-2 -4 -1 -14 5 -22 7 -12 9 -10 9 8 0 23 -5 28 -14 14z"/>
<path d="M1280 3571 c0 -6 4 -13 10 -16 6 -3 7 1 4 9 -7 18 -14 21 -14 7z"/>
<path d="M1506 3555 c-3 -8 -1 -15 4 -15 6 0 10 7 10 15 0 8 -2 15 -4 15 -2 0
-6 -7 -10 -15z"/>
<path d="M750 3520 c0 -5 5 -10 10 -10 6 0 10 5 10 10 0 6 -4 10 -10 10 -5 0
-10 -4 -10 -10z"/>
<path d="M1586 2332 c-13 -12 -5 -29 19 -42 28 -15 33 -30 10 -30 -8 0 -19 9
-25 20 -6 11 -16 20 -23 18 -14 -2 -103 11 -123 19 -8 3 -14 1 -14 -4 0 -5 24
-20 53 -33 49 -22 66 -36 67 -52 0 -4 -21 5 -47 20 -32 17 -43 20 -35 9 8 -9
11 -21 7 -27 -10 -16 -25 -12 -25 7 0 13 -3 14 -12 5 -7 -7 -27 -12 -45 -12
-25 0 -33 -4 -33 -18 0 -10 -5 -23 -11 -29 -8 -8 -6 -15 9 -24 16 -10 18 -16
10 -26 -8 -10 -6 -13 6 -13 31 0 16 -19 -24 -31 -44 -13 -47 -19 -24 -54 15
-23 14 -23 -7 -18 l-22 6 21 -21 c27 -27 28 -43 2 -62 -14 -10 -16 -17 -9 -26
5 -7 11 -29 12 -50 2 -21 8 -39 15 -42 7 -2 12 -10 12 -18 0 -9 -4 -12 -10 -9
-5 3 -10 2 -10 -4 0 -5 5 -13 11 -16 6 -4 8 -13 5 -20 -3 -8 2 -19 10 -26 12
-10 14 -6 13 22 -1 41 6 85 20 119 l10 25 7 -22 c6 -22 23 -32 25 -15 4 42 3
75 -4 79 -12 8 13 33 34 33 10 0 21 5 24 10 3 6 1 10 -5 10 -6 0 -8 5 -5 10 3
6 0 10 -8 10 -8 0 -14 10 -14 23 0 18 5 23 25 22 33 0 42 30 12 38 -25 6 -27
27 -2 28 10 0 12 3 5 6 -7 2 -13 9 -13 14 0 6 5 7 11 3 17 -10 59 17 59 38 0
21 20 24 38 6 9 -9 12 -9 12 2 0 15 69 80 86 80 6 0 17 7 25 16 10 13 10 17
-2 25 -20 12 -31 11 -26 -3 2 -7 11 -12 18 -10 11 3 12 1 1 -10 -9 -9 -15 -10
-20 -2 -4 6 -17 14 -29 18 -13 4 -23 11 -23 16 0 9 -37 20 -44 12z m-161 -172
c3 -6 -3 -10 -13 -10 -21 0 -46 23 -36 33 8 7 40 -8 49 -23z m-70 -320 c-3 -5
-10 -10 -16 -10 -5 0 -9 5 -9 10 0 6 7 10 16 10 8 0 12 -4 9 -10z"/>
<path d="M1712 2196 c4 -5 3 -15 -2 -21 -8 -9 -6 -15 6 -19 28 -11 36 9 12 30
-13 10 -20 15 -16 10z"/>
<path d="M1290 2130 c0 -6 7 -10 15 -10 8 0 15 2 15 4 0 2 -7 6 -15 10 -8 3
-15 1 -15 -4z"/>
<path d="M1390 1821 c0 -21 13 -41 27 -41 8 0 13 6 10 13 -2 6 -9 11 -15 10
-6 -2 -9 4 -6 12 4 8 1 15 -5 15 -6 0 -11 -4 -11 -9z"/>
<path d="M1400 1730 c0 -5 5 -10 11 -10 5 0 7 5 4 10 -3 6 -8 10 -11 10 -2 0
-4 -4 -4 -10z"/>
<path d="M1335 1618 c-4 -10 -4 -26 0 -35 8 -17 8 -17 12 0 3 9 3 25 0 35 -4
16 -4 16 -12 0z"/>
<path d="M1390 1580 c0 -5 5 -10 10 -10 6 0 10 5 10 10 0 6 -4 10 -10 10 -5 0
-10 -4 -10 -10z"/>
<path d="M976 1515 c-3 -9 0 -15 9 -15 16 0 20 16 6 24 -5 3 -11 -1 -15 -9z"/>
<path d="M1412 1505 c0 -16 2 -22 5 -12 2 9 2 23 0 30 -3 6 -5 -1 -5 -18z"/>
<path d="M1362 1479 c2 -7 10 -15 17 -17 8 -3 12 1 9 9 -2 7 -10 15 -17 17 -8
3 -12 -1 -9 -9z"/>
<path d="M1288 1423 c-3 -11 -1 -41 5 -66 5 -25 6 -53 2 -63 -11 -25 -6 -54
11 -71 8 -8 14 -23 14 -34 0 -10 4 -19 9 -19 5 0 12 -8 14 -17 4 -14 5 -13 6
4 0 13 -6 41 -15 63 -9 22 -14 47 -10 55 3 8 1 15 -4 15 -6 0 -10 17 -11 38 0
20 -3 55 -7 77 -6 32 -9 36 -14 18z"/>
<path d="M1384 1407 c0 -12 -4 -31 -8 -42 -4 -11 1 -5 11 13 10 20 13 36 7 42
-5 5 -9 1 -10 -13z"/>
<path d="M3826 1347 c-5 -15 -6 -31 -2 -34 11 -11 18 5 14 34 l-4 28 -8 -28z"/>
<path d="M3916 1328 c3 -5 10 -6 15 -3 13 9 11 12 -6 12 -8 0 -12 -4 -9 -9z"/>
<path d="M1775 1300 c4 -19 14 -42 22 -52 10 -11 11 -18 3 -23 -8 -5 -8 -11
-1 -19 6 -7 9 -15 6 -17 -2 -3 6 -5 19 -5 27 0 28 16 1 46 -10 11 -15 20 -10
20 4 0 1 7 -6 17 -8 9 -13 19 -13 22 1 3 -5 15 -13 26 -14 19 -14 18 -8 -15z
m59 -102 c-3 -5 -12 -4 -20 3 -7 6 -11 15 -8 21 3 5 12 4 20 -3 7 -6 11 -15 8
-21z"/>
<path d="M1386 1311 c-7 -11 3 -41 14 -41 4 0 5 11 2 25 -5 27 -8 30 -16 16z"/>
<path d="M1280 1161 c0 -5 5 -13 10 -16 6 -3 10 -2 10 4 0 5 -4 13 -10 16 -5
3 -10 2 -10 -4z"/>
<path d="M1803 1157 c0 -8 6 -14 14 -14 9 0 10 4 2 14 -6 7 -12 13 -14 13 -1
0 -2 -6 -2 -13z"/>
<path d="M3990 1124 c0 -5 7 -18 15 -28 12 -16 15 -17 15 -4 0 8 -7 21 -15 28
-8 7 -15 9 -15 4z"/>
<path d="M1831 1106 c-9 -10 -8 -16 3 -25 10 -9 16 -8 25 3 9 10 8 16 -3 25
-10 9 -16 8 -25 -3z m23 -17 c-3 -5 -10 -7 -15 -3 -5 3 -7 10 -3 15 3 5 10 7
15 3 5 -3 7 -10 3 -15z"/>
<path d="M1886 1102 c-3 -5 1 -15 8 -21 11 -10 14 -9 12 3 -3 21 -13 29 -20
18z"/>
<path d="M1316 1092 c-3 -5 1 -9 9 -9 8 0 12 4 9 9 -3 4 -7 8 -9 8 -2 0 -6 -4
-9 -8z"/>
<path d="M1280 1028 c13 -43 23 -51 38 -28 11 17 10 20 -8 20 -11 0 -20 6 -20
14 0 8 -4 17 -9 21 -6 3 -6 -7 -1 -27z"/>
<path d="M1794 1045 c-3 -8 2 -22 12 -32 17 -17 18 -17 10 2 -5 11 -9 26 -9
33 0 16 -6 15 -13 -3z"/>
<path d="M1876 1049 c2 -4 0 -10 -6 -14 -6 -4 -8 -11 -4 -16 4 -6 11 -6 20 2
18 15 18 36 -1 36 -8 0 -12 -4 -9 -8z"/>
<path d="M1826 976 c3 -9 11 -16 16 -16 13 0 5 23 -10 28 -7 2 -10 -2 -6 -12z"/>
<path d="M1980 965 c0 -2 6 -8 13 -14 10 -8 14 -7 14 2 0 8 -6 14 -14 14 -7 0
-13 -1 -13 -2z"/>
<path d="M1862 936 c10 -7 15 -16 11 -19 -3 -4 2 -9 11 -13 9 -3 16 -14 17
-23 0 -10 2 -11 6 -4 6 16 -34 73 -50 73 -7 0 -4 -7 5 -14z"/>
<path d="M1839 861 c15 -27 14 -39 -2 -17 -12 16 -13 16 -14 -3 -1 -15 3 -19
19 -16 15 3 18 0 14 -11 -4 -11 1 -18 14 -21 15 -4 18 -9 10 -18 -8 -10 -7
-13 4 -11 23 3 29 12 21 36 -4 13 -12 19 -20 16 -10 -3 -12 0 -8 11 5 12 3 14
-7 8 -10 -6 -12 -4 -7 8 4 11 -1 21 -14 28 -19 9 -19 9 -10 -10z"/>
<path d="M1920 844 c0 -8 5 -12 10 -9 6 4 8 11 5 16 -9 14 -15 11 -15 -7z"/>
<path d="M1945 820 c3 -5 8 -10 11 -10 2 0 4 5 4 10 0 6 -5 10 -11 10 -5 0 -7
-4 -4 -10z"/>
<path d="M1330 806 c0 -2 7 -6 15 -10 8 -3 15 -1 15 4 0 6 -7 10 -15 10 -8 0
-15 -2 -15 -4z"/>
<path d="M1903 751 c-10 -16 -9 -19 5 -17 9 2 18 10 20 19 5 23 -10 21 -25 -2z"/>
<path d="M1995 760 c3 -5 8 -10 11 -10 2 0 4 5 4 10 0 6 -5 10 -11 10 -5 0 -7
-4 -4 -10z"/>
<path d="M2016 725 c4 -8 8 -15 10 -15 2 0 4 7 4 15 0 8 -4 15 -10 15 -5 0 -7
-7 -4 -15z"/>
<path d="M1925 720 c-6 -9 1 -12 22 -9 4 0 10 -8 14 -18 7 -16 8 -16 8 -1 1
21 -35 43 -44 28z"/>
<path d="M1301 704 c0 -11 3 -14 6 -6 3 7 2 16 -1 19 -3 4 -6 -2 -5 -13z"/>
<path d="M2040 701 c0 -6 5 -13 10 -16 6 -3 10 1 10 9 0 9 -4 16 -10 16 -5 0
-10 -4 -10 -9z"/>
<path d="M1980 693 c1 -14 28 -44 32 -36 3 4 -3 16 -14 26 -10 9 -18 14 -18
10z"/>
<path d="M2214 678 c-3 -5 0 -7 7 -6 6 2 14 -3 17 -11 2 -8 0 -11 -6 -7 -6 3
-13 2 -16 -3 -4 -5 2 -8 11 -7 21 3 26 43 6 43 -8 0 -16 -4 -19 -9z"/>
<path d="M2070 671 c0 -6 4 -13 10 -16 6 -3 7 1 4 9 -7 18 -14 21 -14 7z"/>
<path d="M2031 638 c-1 -21 15 -32 25 -17 4 7 3 9 -4 5 -6 -3 -13 2 -15 11 -4
16 -5 16 -6 1z"/>
<path d="M2095 641 c-3 -5 -1 -12 5 -16 5 -3 10 1 10 9 0 18 -6 21 -15 7z"/>
<path d="M2276 628 c3 -5 10 -6 15 -3 13 9 11 12 -6 12 -8 0 -12 -4 -9 -9z"/>
<path d="M2236 622 c-3 -5 1 -9 9 -9 8 0 12 4 9 9 -3 4 -7 8 -9 8 -2 0 -6 -4
-9 -8z"/>
<path d="M2296 611 c-4 -6 -11 -9 -16 -6 -5 3 -11 1 -14 -4 -7 -11 13 -9 32 2
15 10 16 -5 0 -21 -9 -9 -6 -11 10 -7 25 4 28 -4 10 -25 -10 -11 -9 -11 6 0
11 8 21 14 23 12 3 -2 8 0 11 4 4 4 1 4 -5 0 -7 -4 -13 -4 -13 1 0 4 -9 19
-19 32 -12 16 -20 20 -25 12z"/>
<path d="M2025 591 c-3 -5 -2 -12 3 -15 5 -3 9 1 9 9 0 17 -3 19 -12 6z"/>
<path d="M2071 595 c-1 -18 27 -47 34 -36 3 6 1 11 -5 11 -6 0 -8 5 -4 12 4 6
3 8 -4 4 -5 -3 -13 0 -15 6 -3 7 -6 9 -6 3z"/>
<path d="M2148 568 c-2 -16 -9 -22 -20 -20 -10 2 -18 -1 -18 -6 0 -19 14 -21
33 -5 22 20 26 20 38 1 7 -10 9 -8 9 6 0 12 -5 16 -14 13 -10 -4 -13 -1 -10 7
3 8 1 17 -5 20 -5 4 -11 -4 -13 -16z"/>
<path d="M2354 538 c-3 -5 -9 -6 -14 -3 -5 3 -11 1 -14 -4 -5 -7 22 -8 32 -1
1 2 6 3 11 4 17 2 21 13 6 13 -9 0 -18 -4 -21 -9z"/>
<path d="M2200 520 c0 -5 5 -10 11 -10 5 0 7 5 4 10 -3 6 -8 10 -11 10 -2 0
-4 -4 -4 -10z"/>
<path d="M2385 520 c-4 -6 -10 -8 -15 -5 -5 3 -12 0 -16 -6 -4 -7 -3 -9 3 -6
6 4 14 0 17 -9 3 -9 11 -12 18 -8 8 5 9 2 5 -10 -5 -11 -3 -15 5 -10 7 5 9 2
5 -9 -4 -12 -1 -15 14 -12 16 3 18 1 9 -16 -8 -13 -7 -19 0 -19 6 0 8 -6 4
-12 -6 -10 -4 -10 8 0 13 10 18 10 24 1 5 -8 3 -9 -5 -4 -10 6 -11 3 -2 -14 7
-12 9 -27 5 -33 -4 -6 -3 -8 3 -5 6 4 15 -5 22 -19 10 -23 14 -24 28 -13 15
13 15 12 5 -7 -11 -22 0 -55 12 -35 10 15 26 4 20 -13 -3 -8 0 -17 7 -22 8 -5
10 -3 4 6 -6 9 -4 11 4 6 7 -5 10 -15 7 -23 -3 -8 -2 -12 2 -10 4 2 18 -8 32
-21 14 -14 20 -23 15 -19 -6 3 -11 -3 -11 -13 0 -12 4 -16 11 -10 13 11 39
-26 29 -42 -5 -7 -2 -8 6 -3 10 6 12 4 7 -9 -5 -11 -3 -15 5 -10 7 5 9 2 5 -9
-4 -11 -2 -14 7 -11 8 3 17 0 22 -7 4 -8 3 -10 -4 -5 -8 5 -10 2 -6 -8 3 -9
11 -14 17 -13 7 1 12 -5 11 -14 -1 -11 10 -16 37 -18 44 -2 49 9 19 39 -11 11
-18 20 -15 20 3 0 -3 8 -12 18 -34 36 -51 60 -46 65 2 3 -5 11 -17 17 -14 8
-19 17 -15 28 3 9 3 14 0 10 -10 -9 -45 24 -38 35 3 6 1 7 -5 3 -7 -4 -12 -3
-12 3 0 5 -14 23 -31 40 -17 17 -28 35 -24 41 3 6 0 7 -9 4 -11 -4 -16 0 -16
10 0 9 -5 16 -11 16 -5 0 -7 5 -3 12 5 7 3 8 -6 3 -10 -6 -12 -4 -7 8 3 9 3
16 -1 16 -19 -3 -33 2 -28 10 3 4 -2 17 -10 27 -9 10 -12 12 -8 4 4 -8 -7 0
-24 19 -18 18 -29 37 -26 42 3 5 2 9 -3 8 -27 -5 -35 1 -23 16 7 8 10 15 7 15
-3 0 -9 -5 -12 -10z m123 -165 c6 -12 7 -27 3 -33 -5 -8 -13 0 -23 21 -13 27
-13 34 -3 34 7 0 18 -10 23 -22z"/>
<path d="M2110 494 c0 -8 5 -12 10 -9 6 4 8 11 5 16 -9 14 -15 11 -15 -7z"/>
<path d="M2199 433 c12 -23 18 -50 15 -60 -5 -17 -5 -17 6 0 11 18 12 18 26 0
7 -10 14 -14 14 -9 0 6 6 2 13 -9 11 -14 16 -15 22 -5 5 8 4 11 -2 7 -6 -4
-14 0 -17 9 -3 9 -11 12 -18 8 -8 -5 -9 -2 -5 10 4 10 3 15 -3 11 -6 -3 -10
-1 -10 5 0 6 -5 8 -12 4 -8 -5 -9 -2 -5 10 4 10 3 15 -3 11 -6 -3 -10 -2 -10
2 0 5 -7 18 -15 29 -10 11 -8 3 4 -23z"/>
<path d="M2250 461 c0 -6 4 -13 10 -16 6 -3 7 1 4 9 -7 18 -14 21 -14 7z"/>
<path d="M2280 430 c0 -5 5 -10 11 -10 5 0 7 5 4 10 -3 6 -8 10 -11 10 -2 0
-4 -4 -4 -10z"/>
<path d="M3660 365 c-13 -14 -19 -25 -14 -25 8 1 50 50 41 50 -2 0 -14 -11
-27 -25z"/>
<path d="M2334 360 c0 -10 4 -18 7 -17 4 1 15 -7 23 -18 l16 -20 -7 20 c-4 11
-14 28 -23 37 -15 16 -16 16 -16 -2z"/>
<path d="M3630 310 c-6 -11 -8 -20 -6 -20 3 0 10 9 16 20 6 11 8 20 6 20 -3 0
-10 -9 -16 -20z"/>
<path d="M2319 301 c7 -5 11 -14 7 -20 -5 -7 -1 -9 9 -5 12 5 13 9 4 20 -6 8
-17 14 -23 14 -6 0 -5 -4 3 -9z"/>
<path d="M2400 286 c0 -2 7 -6 15 -10 8 -3 15 -1 15 4 0 6 -7 10 -15 10 -8 0
-15 -2 -15 -4z"/>
<path d="M2359 265 c-1 -5 -1 -14 0 -18 1 -4 -4 -18 -10 -30 -10 -20 -9 -20 9
2 20 24 39 15 28 -14 -3 -9 1 -12 15 -10 16 3 19 0 14 -18 -5 -19 -5 -20 5 -4
9 14 7 22 -9 40 -12 12 -28 31 -36 42 -8 11 -15 16 -16 10z"/>
<path d="M2470 210 c0 -5 9 -14 20 -20 19 -10 20 -10 8 9 -13 22 -28 28 -28
11z"/>
<path d="M2520 171 c0 -5 5 -13 10 -16 6 -3 10 -2 10 4 0 5 -4 13 -10 16 -5 3
-10 2 -10 -4z"/>
<path d="M2607 79 c4 -13 8 -18 11 -10 2 7 -1 18 -6 23 -8 8 -9 4 -5 -13z"/>
<path d="M2490 75 c-7 -9 -8 -15 -2 -15 5 0 12 7 16 15 3 8 4 15 2 15 -2 0 -9
-7 -16 -15z"/>
<path d="M2519 80 c-5 -25 -4 -50 3 -50 4 0 8 5 8 10 0 6 3 9 8 9 19 -3 32 2
32 13 0 9 -3 9 -12 0 -9 -9 -14 -7 -24 6 -8 9 -14 15 -15 12z"/>
<path d="M2570 22 c9 -19 30 -23 30 -5 0 4 -3 3 -7 0 -3 -4 -12 1 -20 11 -13
15 -13 15 -3 -6z"/>
<path d="M2661 18 c11 -20 29 -24 29 -7 0 5 -5 7 -12 3 -7 -5 -9 -2 -6 8 4 8
0 15 -7 15 -10 0 -11 -5 -4 -19z"/>
</g>
</svg>
